<svg width="69" height="69" viewBox="0 0 69 69" fill="none" xmlns="http://www.w3.org/2000/svg">
<g filter="url(#filter0_d_365_724)">
<path d="M30.7779 64.3808C30.9773 64.3991 31.1708 64.4578 31.3468 64.5535C31.5227 64.6492 31.6772 64.7797 31.8009 64.9371C31.9247 65.0946 32.015 65.2756 32.0664 65.4691C32.1177 65.6627 32.1291 65.8646 32.0997 66.0627C32.0782 66.2615 32.0164 66.4538 31.9181 66.6279C31.8198 66.8021 31.687 66.9543 31.5279 67.0755C31.3688 67.1966 31.1867 67.284 30.9927 67.3325C30.7987 67.3809 30.5969 67.3894 30.3996 67.3572C30.1468 67.3276 29.9064 67.232 29.7024 67.0799C29.4983 66.9279 29.3379 66.7249 29.2372 66.4912L29.5107 66.3772C29.5836 66.5596 29.6976 66.7191 29.8617 66.8467C30.0258 66.9744 30.2172 67.0518 30.4315 67.0746C30.5914 67.1017 30.7552 67.0956 30.9127 67.0568C31.0702 67.0179 31.218 66.9472 31.3471 66.8489C31.4761 66.7506 31.5836 66.6269 31.6629 66.4854C31.7422 66.3439 31.7916 66.1876 31.808 66.0263C31.8323 65.8658 31.8236 65.702 31.7825 65.545C31.7414 65.388 31.6687 65.2411 31.5689 65.1131C31.4691 64.9851 31.3442 64.8788 31.2019 64.8007C31.0597 64.7226 30.903 64.6743 30.7414 64.6588C30.5272 64.6315 30.3221 64.6588 30.1306 64.7409C29.9392 64.8229 29.7888 64.9414 29.6748 65.1055L29.4378 64.9323C29.5921 64.7309 29.7969 64.5738 30.0314 64.4769C30.2659 64.3801 30.5219 64.3469 30.7733 64.3808H30.7779ZM25.103 63.5421C25.4631 63.3461 25.846 63.3096 26.2471 63.4281C26.6528 63.5512 26.949 63.7928 27.145 64.1529C27.341 64.5175 27.3729 64.8958 27.259 65.297C27.2063 65.4872 27.1152 65.6646 26.9914 65.8182C26.8675 65.9719 26.7135 66.0985 26.5388 66.1904C26.1741 66.3909 25.7913 66.4274 25.3901 66.3089C25.1983 66.2557 25.0195 66.1635 24.865 66.038C24.7105 65.9125 24.5836 65.7564 24.4922 65.5796C24.3965 65.4074 24.3371 65.2175 24.3175 65.0216C24.2979 64.8256 24.3186 64.6277 24.3782 64.44C24.4316 64.2489 24.5234 64.0707 24.648 63.9163C24.7727 63.7619 24.9275 63.6346 25.103 63.5421ZM26.8943 64.285C26.82 64.142 26.7168 64.0158 26.5913 63.9146C26.4658 63.8134 26.3206 63.7393 26.165 63.697C26.0121 63.649 25.8512 63.6323 25.6917 63.6478C25.5322 63.6633 25.3774 63.7107 25.2366 63.7873C25.0958 63.8638 24.9719 63.9679 24.8722 64.0934C24.7725 64.2188 24.6991 64.3631 24.6563 64.5175C24.6077 64.6706 24.5907 64.832 24.6064 64.9918C24.622 65.1517 24.67 65.3066 24.7474 65.4474C24.8979 65.7436 25.1394 65.9397 25.4722 66.0399C25.8004 66.1311 26.1103 66.1037 26.3975 65.9442C26.5392 65.8687 26.6641 65.7651 26.7644 65.6397C26.8647 65.5143 26.9384 65.3698 26.9809 65.2149C27.0767 64.8867 27.0493 64.5768 26.8898 64.285H26.8943ZM19.6697 63.9842L19.4099 63.8566L20.6861 61.2493L20.914 61.3587L21.3243 64.1939L22.3635 62.0743L22.6234 62.202L21.3425 64.8092L21.1192 64.6998L20.7089 61.8601L19.6697 63.9842ZM15.189 61.2402L15.344 61.0123L16.0824 61.5137L17.5638 59.344L17.8054 59.5081L16.3194 61.6823L17.0579 62.1837L16.9029 62.4116L15.189 61.2402ZM13.9583 56.4177L13.6757 57.1287L14.6876 58.0632L15.3713 57.7213L15.5947 57.931L12.8051 59.3075L12.5863 59.1024L13.735 56.2126L13.9629 56.4177H13.9583ZM14.4232 58.1953L13.5663 57.3977L12.9373 58.9383L14.4232 58.1953ZM10.9317 52.9899C11.06 53.1436 11.1556 53.3219 11.2126 53.5137C11.2697 53.7056 11.287 53.9071 11.2636 54.1059C11.2401 54.3048 11.1763 54.4967 11.0762 54.67C10.976 54.8434 10.8415 54.9944 10.681 55.114C10.5263 55.241 10.3472 55.335 10.1548 55.3902C9.96236 55.4454 9.7607 55.4607 9.56217 55.435C9.36365 55.4094 9.17246 55.3435 9.00037 55.2412C8.82828 55.139 8.67891 55.0026 8.56147 54.8405C8.40424 54.6412 8.30213 54.4041 8.26533 54.1529C8.22853 53.9018 8.25835 53.6453 8.35179 53.4093L8.62528 53.5187C8.54779 53.701 8.51589 53.8925 8.54323 54.0976C8.57514 54.3072 8.65263 54.4941 8.78482 54.6673C8.87981 54.7991 9.00088 54.91 9.14052 54.993C9.28015 55.076 9.43536 55.1294 9.59651 55.15C9.75766 55.1705 9.9213 55.1576 10.0773 55.1123C10.2333 55.0669 10.3783 54.9899 10.5032 54.8861C10.6336 54.7893 10.7428 54.6668 10.8242 54.5263C10.9056 54.3857 10.9575 54.2301 10.9767 54.0688C10.9959 53.9075 10.982 53.744 10.9359 53.5883C10.8897 53.4326 10.8123 53.2879 10.7084 53.1631C10.5716 52.9945 10.4121 52.8714 10.2206 52.7939C10.0365 52.7165 9.83374 52.6944 9.63719 52.7301L9.59161 52.4384C9.84332 52.4042 10.0996 52.4366 10.3348 52.5326C10.57 52.6286 10.7759 52.7848 10.9317 52.9854V52.9899ZM5.59411 50.2049L5.83114 50.0682L6.27784 50.8431L8.55235 49.5212L8.69821 49.7764L6.41914 51.0937L6.86584 51.8686L6.63337 52.0054L5.59411 50.2095V50.2049ZM4.1902 41.4852L3.93039 41.5399L3.64323 40.0721L3.90304 40.022L4.1902 41.4852ZM4.99244 29.8892C4.96877 30.0878 4.90491 30.2794 4.80474 30.4525C4.70458 30.6255 4.57022 30.7764 4.40985 30.8958C4.24948 31.0152 4.06647 31.1007 3.87198 31.1471C3.67748 31.1935 3.47557 31.1997 3.27857 31.1655C3.08021 31.1392 2.88928 31.0728 2.71746 30.9703C2.54563 30.8677 2.39651 30.7312 2.2792 30.5691C2.16188 30.407 2.07885 30.2227 2.03516 30.0274C1.99147 29.8322 1.98804 29.6301 2.02508 29.4334C2.061 29.1812 2.16298 28.9429 2.32067 28.7428C2.47837 28.5426 2.68618 28.3878 2.92304 28.2939L3.03243 28.5719C2.84099 28.6357 2.68146 28.7451 2.54927 28.9092C2.42164 29.0688 2.3396 29.2556 2.30313 29.4699C2.27117 29.6297 2.27254 29.7945 2.30714 29.9538C2.34175 30.1131 2.40885 30.2636 2.50426 30.3957C2.59966 30.5279 2.72131 30.639 2.8616 30.7221C3.00189 30.8051 3.15781 30.8583 3.3196 30.8783C3.47935 30.9068 3.64323 30.9024 3.80122 30.8654C3.95922 30.8285 4.10802 30.7597 4.23855 30.6633C4.36908 30.5669 4.47859 30.4449 4.5604 30.3047C4.64221 30.1646 4.69461 30.0093 4.71439 29.8482C4.7463 29.634 4.72807 29.4334 4.65058 29.2374C4.57951 29.0513 4.45601 28.8898 4.29504 28.7725L4.47737 28.5446C4.67477 28.7049 4.82634 28.9146 4.91678 29.1523C5.00722 29.39 5.03332 29.6473 4.99244 29.8983V29.8892ZM5.98156 24.2326C6.16388 24.5972 6.19123 24.9801 6.0636 25.3812C6.00536 25.5704 5.90899 25.7457 5.78042 25.8962C5.65186 26.0467 5.49382 26.1693 5.31607 26.2564C4.95141 26.4433 4.56397 26.4706 4.16741 26.3384C3.97935 26.2804 3.80512 26.1846 3.65541 26.0568C3.5057 25.9291 3.38367 25.7721 3.29681 25.5954C3.20299 25.4199 3.14647 25.2268 3.13078 25.0284C3.1151 24.8299 3.14058 24.6304 3.20564 24.4422C3.34239 24.0457 3.58853 23.754 3.95774 23.5671C4.32239 23.3847 4.70527 23.3528 5.10183 23.485C5.29162 23.5432 5.46753 23.6395 5.6188 23.7681C5.77006 23.8966 5.8935 24.0547 5.98156 24.2326ZM5.193 26.0011C5.33643 25.931 5.46388 25.8321 5.5674 25.7105C5.67092 25.589 5.74828 25.4474 5.79467 25.2946C5.8469 25.1427 5.86795 24.9818 5.85656 24.8216C5.84517 24.6614 5.80158 24.5051 5.72838 24.3621C5.65519 24.2191 5.5539 24.0924 5.43058 23.9894C5.30726 23.8865 5.16444 23.8095 5.01067 23.7631C4.86042 23.71 4.70098 23.6879 4.54196 23.6981C4.38293 23.7082 4.22762 23.7505 4.08537 23.8223C3.78453 23.9682 3.58397 24.2052 3.47457 24.5334C3.36974 24.857 3.39253 25.1715 3.54751 25.4633C3.61925 25.6064 3.71924 25.7335 3.84145 25.8369C3.96366 25.9403 4.10556 26.0179 4.25858 26.0649C4.57765 26.1698 4.89672 26.1515 5.193 26.0011ZM5.68072 18.781L5.81746 18.5212L8.3837 19.875L8.26975 20.0983L5.4209 20.4265L7.51765 21.5296L7.38091 21.7848L4.81011 20.4311L4.92862 20.2123L7.77291 19.8841L5.67616 18.781H5.68072ZM8.53412 14.3687L8.75747 14.5328L8.23328 15.253L10.3665 16.7982L10.1933 17.0307L8.06463 15.49L7.54044 16.2102L7.32165 16.0507L8.53412 14.3687ZM13.384 13.2656L12.682 12.9603L11.7248 13.9494L12.0439 14.6377L11.8342 14.861L10.5306 12.0349L10.7403 11.8162L13.5982 13.0469L13.384 13.2656ZM11.6018 13.6804L12.4177 12.8417L10.8952 12.1763L11.6018 13.6804ZM16.8846 10.3211C16.728 10.4457 16.5475 10.5369 16.3543 10.5892C16.1611 10.6415 15.9593 10.6537 15.7612 10.6251C15.5631 10.5965 15.373 10.5277 15.2025 10.4229C15.0319 10.3181 14.8847 10.1795 14.7697 10.0157C14.6471 9.85709 14.5582 9.67513 14.5084 9.48096C14.4586 9.28678 14.449 9.08449 14.4801 8.88647C14.5113 8.68845 14.5825 8.49888 14.6895 8.32937C14.7966 8.15987 14.937 8.014 15.1024 7.90071C15.3058 7.74898 15.5457 7.65351 15.7977 7.6239C16.0498 7.59429 16.3052 7.6316 16.5382 7.73205L16.4197 8.00554C16.2419 7.91438 16.0505 7.88247 15.8408 7.90526C15.6357 7.92805 15.4443 8.00098 15.2711 8.13317C15.1369 8.22428 15.0228 8.34196 14.9359 8.47894C14.849 8.61592 14.7912 8.76928 14.766 8.92951C14.7408 9.08975 14.7487 9.25346 14.7893 9.4105C14.83 9.56754 14.9024 9.71456 15.0021 9.84248C15.0951 9.97611 15.2145 10.0892 15.3529 10.1749C15.4914 10.2605 15.6459 10.3168 15.807 10.3403C15.9681 10.3638 16.1323 10.354 16.2894 10.3115C16.4465 10.269 16.5933 10.1947 16.7206 10.0932C16.8938 9.96555 17.0214 9.80601 17.1034 9.61457C17.1855 9.42313 17.2083 9.22713 17.1764 9.03113L17.4726 8.99466C17.5 9.24682 17.4604 9.50172 17.358 9.73376C17.2556 9.96579 17.0939 10.1668 16.8892 10.3165L16.8846 10.3211ZM19.8064 5.05186L19.9386 5.29344L19.1546 5.72191L20.4081 8.03289L20.1528 8.16964L18.8993 5.85865L18.1153 6.28712L17.9832 6.04554L19.8064 5.05186ZM28.5489 3.88042L28.5034 3.6206L29.9756 3.3699L30.0212 3.62972L28.5489 3.88042ZM40.113 4.98805C39.9148 4.9592 39.7245 4.89021 39.5539 4.78531C39.3833 4.6804 39.2358 4.54178 39.1206 4.37794C39.0054 4.21409 38.9249 4.02846 38.8839 3.83241C38.8429 3.63635 38.8423 3.43399 38.8823 3.23772C38.9142 3.04005 38.9861 2.85098 39.0936 2.68206C39.2011 2.51314 39.3419 2.36793 39.5075 2.25529C39.673 2.14266 39.8598 2.06497 40.0564 2.02698C40.253 1.989 40.4552 1.99151 40.6508 2.03436C40.9009 2.07838 41.1349 2.18751 41.3293 2.35075C41.5238 2.51399 41.6718 2.72559 41.7585 2.96423L41.4759 3.06451C41.4187 2.87461 41.3079 2.70525 41.1568 2.57678C40.9972 2.44004 40.8104 2.34888 40.6007 2.31241C40.4419 2.2768 40.2775 2.27427 40.1177 2.30499C39.9578 2.33571 39.8061 2.39901 39.6718 2.49095C39.5375 2.58289 39.4236 2.7015 39.3372 2.83939C39.2508 2.97728 39.1937 3.13149 39.1694 3.29241C39.1367 3.45146 39.1367 3.61551 39.1695 3.77455C39.2023 3.93358 39.2672 4.08426 39.3602 4.21737C39.4532 4.35048 39.5723 4.46322 39.7104 4.54871C39.8485 4.63419 40.0025 4.69063 40.1631 4.71456C40.3728 4.75102 40.5779 4.73735 40.7739 4.66898C40.9699 4.59149 41.1294 4.47753 41.2479 4.32256L41.4759 4.50944C41.3102 4.70253 41.0966 4.84847 40.8564 4.93251C40.6163 5.01655 40.3583 5.03571 40.1084 4.98805H40.113ZM45.7286 6.12758C45.364 6.30991 44.9765 6.32358 44.5799 6.18228C44.3916 6.11877 44.2184 6.01721 44.0709 5.88391C43.9235 5.7506 43.8051 5.58841 43.723 5.4074C43.638 5.22901 43.5901 5.0352 43.5823 4.83775C43.5745 4.64029 43.6068 4.44331 43.6774 4.25874C43.8142 3.86674 44.0694 3.58414 44.4386 3.40637C44.8124 3.2286 45.1953 3.21037 45.5919 3.35167C45.9884 3.49297 46.2756 3.75279 46.4488 4.12656C46.622 4.49577 46.6402 4.87865 46.5035 5.27521C46.4395 5.46329 46.3378 5.63631 46.2045 5.78367C46.0713 5.93102 45.9093 6.04961 45.7286 6.13214V6.12758ZM43.9828 5.29344C44.1196 5.58972 44.352 5.7994 44.6757 5.91335C44.8257 5.96937 44.9855 5.99464 45.1455 5.98766C45.3055 5.98067 45.4625 5.94156 45.6071 5.87267C45.7517 5.80377 45.8809 5.7065 45.9872 5.58663C46.0934 5.46677 46.1744 5.32675 46.2254 5.17493C46.2824 5.0255 46.3086 4.86608 46.3023 4.70627C46.296 4.54646 46.2575 4.38958 46.189 4.24507C46.1236 4.09778 46.0282 3.96575 45.9089 3.85744C45.7896 3.74912 45.649 3.6669 45.4961 3.61604C45.3464 3.55887 45.1865 3.53341 45.0264 3.54125C44.8664 3.5491 44.7097 3.59009 44.5663 3.66162C44.2654 3.80748 44.0649 4.03995 43.9464 4.35902C43.8324 4.67809 43.8461 4.98805 43.9828 5.29344ZM51.1756 5.98172L51.4308 6.11847L50.0133 8.65736L49.7945 8.53429L49.5392 5.67633L48.386 7.74117L48.1307 7.59987L49.5483 5.06553L49.7671 5.18861L50.0224 8.04201L51.1756 5.98172ZM55.5058 8.95364L55.3372 9.17243L54.6307 8.63001L53.0353 10.7222L52.8074 10.5444L54.4028 8.4568L53.6917 7.90982L53.8558 7.69559L55.5058 8.95364ZM56.4767 13.8354L56.8003 13.1426L55.8431 12.158L55.1412 12.4634L54.9269 12.2401L57.7849 11.0139L57.9946 11.2282L56.6909 14.0542L56.4767 13.8354ZM56.1121 12.0395L56.9234 12.8782L57.6299 11.374L56.1075 12.0395H56.1121ZM59.321 17.4227C59.2007 17.2622 59.1144 17.0789 59.0675 16.8839C59.0206 16.6889 59.014 16.4864 59.0482 16.2888C59.0823 16.0912 59.1565 15.9027 59.2661 15.7347C59.3757 15.5668 59.5185 15.423 59.6856 15.3123C59.8475 15.1947 60.0316 15.1114 60.2268 15.0674C60.4219 15.0234 60.624 15.0197 60.8206 15.0564C61.0172 15.093 61.2043 15.1694 61.3705 15.2808C61.5366 15.3922 61.6783 15.5363 61.787 15.7043C61.9316 15.9117 62.0195 16.1533 62.0419 16.4052C62.0643 16.6571 62.0204 16.9104 61.9146 17.1401L61.6457 17.017C61.7368 16.8392 61.7824 16.6478 61.7596 16.4381C61.7427 16.2313 61.6702 16.0329 61.5499 15.8638C61.4624 15.7274 61.3479 15.6104 61.2134 15.52C61.0789 15.4296 60.9273 15.3678 60.768 15.3383C60.6086 15.3088 60.4449 15.3123 60.287 15.3486C60.129 15.3849 59.9802 15.4532 59.8497 15.5493C59.715 15.6395 59.6 15.7562 59.5116 15.8922C59.4233 16.0282 59.3634 16.1807 59.3357 16.3405C59.308 16.5003 59.3131 16.6641 59.3505 16.8219C59.3879 16.9797 59.457 17.1282 59.5535 17.2586C59.6765 17.4409 59.8315 17.5685 60.0184 17.6552C60.2098 17.7463 60.4013 17.7737 60.6018 17.7463L60.6292 18.0426C60.3759 18.0635 60.1215 18.0171 59.8919 17.9083C59.6622 17.7994 59.4653 17.6319 59.321 17.4227ZM64.5036 20.4858L64.262 20.6088L63.8518 19.8157L61.5135 21.0099L61.3767 20.7547L63.7242 19.5559L63.3185 18.7628L63.5646 18.6352L64.5036 20.4858ZM65.438 29.2693L65.7024 29.2329L65.9075 30.7097L65.6477 30.7462L65.438 29.2693ZM64.0204 40.806C64.0549 40.6089 64.1292 40.421 64.2388 40.2536C64.3483 40.0862 64.4908 39.9429 64.6576 39.8324C64.8244 39.7219 65.012 39.6466 65.2088 39.611C65.4057 39.5754 65.6078 39.5803 65.8027 39.6254C66.2129 39.7166 66.532 39.9263 66.7599 40.2681C66.9832 40.61 67.0516 40.9974 66.9605 41.4259C66.9108 41.6751 66.796 41.9067 66.6279 42.0972C66.4598 42.2878 66.2443 42.4304 66.0032 42.5107L65.9121 42.2281C66.1035 42.1734 66.2676 42.0732 66.4089 41.9182C66.5457 41.7632 66.6368 41.5809 66.6824 41.3712C66.7225 41.2135 66.7297 41.0492 66.7036 40.8886C66.6774 40.7279 66.6184 40.5744 66.5304 40.4376C66.4423 40.3007 66.3269 40.1835 66.1915 40.0932C66.0562 40.0028 65.9036 39.9414 65.7434 39.9126C65.5854 39.8761 65.4216 39.8722 65.262 39.9011C65.1024 39.93 64.9504 39.9911 64.8152 40.0806C64.68 40.1702 64.5645 40.2864 64.4756 40.422C64.3868 40.5577 64.3265 40.7101 64.2985 40.8698C64.2529 41.0795 64.262 41.28 64.3304 41.4806C64.3942 41.6766 64.5036 41.8407 64.6586 41.9638L64.4671 42.1871C64.2757 42.023 64.139 41.8225 64.0569 41.5718C63.9794 41.3256 63.9657 41.0704 64.0204 40.806ZM62.7305 46.4034C62.649 46.2226 62.6053 46.027 62.6021 45.8287C62.599 45.6304 62.6365 45.4335 62.7123 45.2502C62.8627 44.8582 63.1271 44.5801 63.5054 44.4161C63.6853 44.3347 63.8799 44.2907 64.0774 44.2868C64.2748 44.2829 64.471 44.3191 64.654 44.3933C65.046 44.5482 65.3241 44.8081 65.4882 45.1864C65.6568 45.5647 65.6614 45.9476 65.511 46.3396C65.443 46.5256 65.3375 46.6956 65.201 46.839C65.0646 46.9825 64.9001 47.0965 64.7178 47.1737C64.3395 47.3378 63.9566 47.3469 63.5692 47.1965C63.3828 47.1283 63.2123 47.0228 63.068 46.8865C62.9238 46.7501 62.809 46.5857 62.7305 46.4034ZM63.6148 44.6759C63.3139 44.8126 63.0997 45.036 62.9766 45.355C62.8536 45.6741 62.8581 45.9841 62.9903 46.2849C63.127 46.5903 63.355 46.8 63.674 46.923C63.9931 47.0461 64.3031 47.0461 64.6039 46.9139C64.7519 46.8521 64.8855 46.7603 64.9961 46.6441C65.1067 46.528 65.192 46.3901 65.2466 46.2393C65.3742 45.9202 65.3651 45.6057 65.2284 45.3049C65.1642 45.1582 65.0709 45.0259 64.9541 44.9163C64.8374 44.8066 64.6996 44.7217 64.5492 44.6668C64.4008 44.6054 64.2416 44.5746 64.0811 44.5761C63.9205 44.5777 63.7619 44.6116 63.6148 44.6759ZM62.7442 51.8641L62.5983 52.1148L60.1004 50.6243L60.2281 50.41L63.086 50.2323L61.0576 49.0198L61.2081 48.7737L63.7014 50.2596L63.5737 50.4738L60.7158 50.6562L62.7442 51.8641ZM59.6537 56.1168L59.4395 55.9436L60.0002 55.2508L57.9581 53.5962L58.1404 53.3683L60.1825 55.0229L60.7431 54.33L60.9574 54.5032L59.6537 56.1168ZM54.7583 56.9601L55.442 57.302L56.4539 56.3675L56.1668 55.661L56.3947 55.4513L57.5388 58.3458L57.32 58.5463L54.5349 57.1698L54.7629 56.9601H54.7583ZM56.5633 56.641L55.7018 57.4341L57.1878 58.1817L56.5633 56.641ZM51.1072 59.7132C51.2701 59.5968 51.4551 59.515 51.6508 59.4728C51.8465 59.4306 52.0488 59.4288 52.2452 59.4677C52.4416 59.5066 52.628 59.5852 52.7928 59.6987C52.9577 59.8123 53.0976 59.9584 53.204 60.128C53.4319 60.4835 53.5048 60.8573 53.4273 61.2584C53.388 61.4569 53.3082 61.6451 53.193 61.8114C53.0777 61.9777 52.9294 62.1184 52.7573 62.2248C52.5457 62.3657 52.3007 62.4484 52.047 62.4644C51.7933 62.4804 51.5399 62.4292 51.3123 62.3159L51.4491 62.0515C51.6177 62.1518 51.8137 62.1928 52.0188 62.1837C52.224 62.1701 52.42 62.1062 52.6023 61.9877C52.7408 61.9031 52.8605 61.7911 52.954 61.6585C53.0476 61.5259 53.113 61.3755 53.1463 61.2167C53.1796 61.0579 53.1801 60.8939 53.1477 60.7349C53.1153 60.5759 53.0506 60.4252 52.9578 60.2921C52.8716 60.1552 52.7585 60.0373 52.6254 59.9454C52.4923 59.8536 52.3418 59.7897 52.1833 59.7578C52.0247 59.7258 51.8613 59.7264 51.703 59.7595C51.5446 59.7925 51.3947 59.8574 51.2622 59.9502C51.0799 60.0687 50.9431 60.2237 50.852 60.4061C50.7608 60.5929 50.7243 60.7844 50.7426 60.9849L50.4508 61.0032C50.4372 60.7494 50.4906 60.4966 50.6059 60.2701C50.7211 60.0436 50.894 59.8515 51.1072 59.7132ZM47.9074 64.8183L47.7889 64.5677L48.5911 64.1848L47.4607 61.8145L47.7251 61.6869L48.8555 64.0571L49.6577 63.6742L49.7762 63.9249L47.9074 64.8183ZM39.1193 65.5203L39.1466 65.7847L37.6607 65.9533L37.6333 65.6935L39.1147 65.5203H39.1193Z" fill="black"/>
<path d="M30.7779 64.3808C30.9773 64.3991 31.1708 64.4578 31.3468 64.5535C31.5227 64.6492 31.6772 64.7797 31.8009 64.9371C31.9247 65.0946 32.015 65.2756 32.0664 65.4691C32.1177 65.6627 32.1291 65.8646 32.0997 66.0627C32.0782 66.2615 32.0164 66.4538 31.9181 66.6279C31.8198 66.8021 31.687 66.9543 31.5279 67.0755C31.3688 67.1966 31.1867 67.284 30.9927 67.3325C30.7987 67.3809 30.5969 67.3894 30.3996 67.3572C30.1468 67.3276 29.9064 67.232 29.7024 67.0799C29.4983 66.9279 29.3379 66.7249 29.2372 66.4912L29.5107 66.3772C29.5836 66.5596 29.6976 66.7191 29.8617 66.8467C30.0258 66.9744 30.2172 67.0518 30.4315 67.0746C30.5914 67.1017 30.7552 67.0956 30.9127 67.0568C31.0702 67.0179 31.218 66.9472 31.3471 66.8489C31.4761 66.7506 31.5836 66.6269 31.6629 66.4854C31.7422 66.3439 31.7916 66.1876 31.808 66.0263C31.8323 65.8658 31.8236 65.702 31.7825 65.545C31.7414 65.388 31.6687 65.2411 31.5689 65.1131C31.4691 64.9851 31.3442 64.8788 31.2019 64.8007C31.0597 64.7226 30.903 64.6743 30.7414 64.6588C30.5272 64.6315 30.3221 64.6588 30.1306 64.7409C29.9392 64.8229 29.7888 64.9414 29.6748 65.1055L29.4378 64.9323C29.5921 64.7309 29.7969 64.5738 30.0314 64.4769C30.2659 64.3801 30.5219 64.3469 30.7733 64.3808H30.7779ZM25.103 63.5421C25.4631 63.3461 25.846 63.3096 26.2471 63.4281C26.6528 63.5512 26.949 63.7928 27.145 64.1529C27.341 64.5175 27.3729 64.8958 27.259 65.297C27.2063 65.4872 27.1152 65.6646 26.9914 65.8182C26.8675 65.9719 26.7135 66.0985 26.5388 66.1904C26.1741 66.3909 25.7913 66.4274 25.3901 66.3089C25.1983 66.2557 25.0195 66.1635 24.865 66.038C24.7105 65.9125 24.5836 65.7564 24.4922 65.5796C24.3965 65.4074 24.3371 65.2175 24.3175 65.0216C24.2979 64.8256 24.3186 64.6277 24.3782 64.44C24.4316 64.2489 24.5234 64.0707 24.648 63.9163C24.7727 63.7619 24.9275 63.6346 25.103 63.5421ZM26.8943 64.285C26.82 64.142 26.7168 64.0158 26.5913 63.9146C26.4658 63.8134 26.3206 63.7393 26.165 63.697C26.0121 63.649 25.8512 63.6323 25.6917 63.6478C25.5322 63.6633 25.3774 63.7107 25.2366 63.7873C25.0958 63.8638 24.9719 63.9679 24.8722 64.0934C24.7725 64.2188 24.6991 64.3631 24.6563 64.5175C24.6077 64.6706 24.5907 64.832 24.6064 64.9918C24.622 65.1517 24.67 65.3066 24.7474 65.4474C24.8979 65.7436 25.1394 65.9397 25.4722 66.0399C25.8004 66.1311 26.1103 66.1037 26.3975 65.9442C26.5392 65.8687 26.6641 65.7651 26.7644 65.6397C26.8647 65.5143 26.9384 65.3698 26.9809 65.2149C27.0767 64.8867 27.0493 64.5768 26.8898 64.285H26.8943ZM19.6697 63.9842L19.4099 63.8566L20.6861 61.2493L20.914 61.3587L21.3243 64.1939L22.3635 62.0743L22.6234 62.202L21.3425 64.8092L21.1192 64.6998L20.7089 61.8601L19.6697 63.9842ZM15.189 61.2402L15.344 61.0123L16.0824 61.5137L17.5638 59.344L17.8054 59.5081L16.3194 61.6823L17.0579 62.1837L16.9029 62.4116L15.189 61.2402ZM13.9583 56.4177L13.6757 57.1287L14.6876 58.0632L15.3713 57.7213L15.5947 57.931L12.8051 59.3075L12.5863 59.1024L13.735 56.2126L13.9629 56.4177H13.9583ZM14.4232 58.1953L13.5663 57.3977L12.9373 58.9383L14.4232 58.1953ZM10.9317 52.9899C11.06 53.1436 11.1556 53.3219 11.2126 53.5137C11.2697 53.7056 11.287 53.9071 11.2636 54.1059C11.2401 54.3048 11.1763 54.4967 11.0762 54.67C10.976 54.8434 10.8415 54.9944 10.681 55.114C10.5263 55.241 10.3472 55.335 10.1548 55.3902C9.96236 55.4454 9.7607 55.4607 9.56217 55.435C9.36365 55.4094 9.17246 55.3435 9.00037 55.2412C8.82828 55.139 8.67891 55.0026 8.56147 54.8405C8.40424 54.6412 8.30213 54.4041 8.26533 54.1529C8.22853 53.9018 8.25835 53.6453 8.35179 53.4093L8.62528 53.5187C8.54779 53.701 8.51589 53.8925 8.54323 54.0976C8.57514 54.3072 8.65263 54.4941 8.78482 54.6673C8.87981 54.7991 9.00088 54.91 9.14052 54.993C9.28015 55.076 9.43536 55.1294 9.59651 55.15C9.75766 55.1705 9.9213 55.1576 10.0773 55.1123C10.2333 55.0669 10.3783 54.9899 10.5032 54.8861C10.6336 54.7893 10.7428 54.6668 10.8242 54.5263C10.9056 54.3857 10.9575 54.2301 10.9767 54.0688C10.9959 53.9075 10.982 53.744 10.9359 53.5883C10.8897 53.4326 10.8123 53.2879 10.7084 53.1631C10.5716 52.9945 10.4121 52.8714 10.2206 52.7939C10.0365 52.7165 9.83374 52.6944 9.63719 52.7301L9.59161 52.4384C9.84332 52.4042 10.0996 52.4366 10.3348 52.5326C10.57 52.6286 10.7759 52.7848 10.9317 52.9854V52.9899ZM5.59411 50.2049L5.83114 50.0682L6.27784 50.8431L8.55235 49.5212L8.69821 49.7764L6.41914 51.0937L6.86584 51.8686L6.63337 52.0054L5.59411 50.2095V50.2049ZM4.1902 41.4852L3.93039 41.5399L3.64323 40.0721L3.90304 40.022L4.1902 41.4852ZM4.99244 29.8892C4.96877 30.0878 4.90491 30.2794 4.80474 30.4525C4.70458 30.6255 4.57022 30.7764 4.40985 30.8958C4.24948 31.0152 4.06647 31.1007 3.87198 31.1471C3.67748 31.1935 3.47557 31.1997 3.27857 31.1655C3.08021 31.1392 2.88928 31.0728 2.71746 30.9703C2.54563 30.8677 2.39651 30.7312 2.2792 30.5691C2.16188 30.407 2.07885 30.2227 2.03516 30.0274C1.99147 29.8322 1.98804 29.6301 2.02508 29.4334C2.061 29.1812 2.16298 28.9429 2.32067 28.7428C2.47837 28.5426 2.68618 28.3878 2.92304 28.2939L3.03243 28.5719C2.84099 28.6357 2.68146 28.7451 2.54927 28.9092C2.42164 29.0688 2.3396 29.2556 2.30313 29.4699C2.27117 29.6297 2.27254 29.7945 2.30714 29.9538C2.34175 30.1131 2.40885 30.2636 2.50426 30.3957C2.59966 30.5279 2.72131 30.639 2.8616 30.7221C3.00189 30.8051 3.15781 30.8583 3.3196 30.8783C3.47935 30.9068 3.64323 30.9024 3.80122 30.8654C3.95922 30.8285 4.10802 30.7597 4.23855 30.6633C4.36908 30.5669 4.47859 30.4449 4.5604 30.3047C4.64221 30.1646 4.69461 30.0093 4.71439 29.8482C4.7463 29.634 4.72807 29.4334 4.65058 29.2374C4.57951 29.0513 4.45601 28.8898 4.29504 28.7725L4.47737 28.5446C4.67477 28.7049 4.82634 28.9146 4.91678 29.1523C5.00722 29.39 5.03332 29.6473 4.99244 29.8983V29.8892ZM5.98156 24.2326C6.16388 24.5972 6.19123 24.9801 6.0636 25.3812C6.00536 25.5704 5.90899 25.7457 5.78042 25.8962C5.65186 26.0467 5.49382 26.1693 5.31607 26.2564C4.95141 26.4433 4.56397 26.4706 4.16741 26.3384C3.97935 26.2804 3.80512 26.1846 3.65541 26.0568C3.5057 25.9291 3.38367 25.7721 3.29681 25.5954C3.20299 25.4199 3.14647 25.2268 3.13078 25.0284C3.1151 24.8299 3.14058 24.6304 3.20564 24.4422C3.34239 24.0457 3.58853 23.754 3.95774 23.5671C4.32239 23.3847 4.70527 23.3528 5.10183 23.485C5.29162 23.5432 5.46753 23.6395 5.6188 23.7681C5.77006 23.8966 5.8935 24.0547 5.98156 24.2326ZM5.193 26.0011C5.33643 25.931 5.46388 25.8321 5.5674 25.7105C5.67092 25.589 5.74828 25.4474 5.79467 25.2946C5.8469 25.1427 5.86795 24.9818 5.85656 24.8216C5.84517 24.6614 5.80158 24.5051 5.72838 24.3621C5.65519 24.2191 5.5539 24.0924 5.43058 23.9894C5.30726 23.8865 5.16444 23.8095 5.01067 23.7631C4.86042 23.71 4.70098 23.6879 4.54196 23.6981C4.38293 23.7082 4.22762 23.7505 4.08537 23.8223C3.78453 23.9682 3.58397 24.2052 3.47457 24.5334C3.36974 24.857 3.39253 25.1715 3.54751 25.4633C3.61925 25.6064 3.71924 25.7335 3.84145 25.8369C3.96366 25.9403 4.10556 26.0179 4.25858 26.0649C4.57765 26.1698 4.89672 26.1515 5.193 26.0011ZM5.68072 18.781L5.81746 18.5212L8.3837 19.875L8.26975 20.0983L5.4209 20.4265L7.51765 21.5296L7.38091 21.7848L4.81011 20.4311L4.92862 20.2123L7.77291 19.8841L5.67616 18.781H5.68072ZM8.53412 14.3687L8.75747 14.5328L8.23328 15.253L10.3665 16.7982L10.1933 17.0307L8.06463 15.49L7.54044 16.2102L7.32165 16.0507L8.53412 14.3687ZM13.384 13.2656L12.682 12.9603L11.7248 13.9494L12.0439 14.6377L11.8342 14.861L10.5306 12.0349L10.7403 11.8162L13.5982 13.0469L13.384 13.2656ZM11.6018 13.6804L12.4177 12.8417L10.8952 12.1763L11.6018 13.6804ZM16.8846 10.3211C16.728 10.4457 16.5475 10.5369 16.3543 10.5892C16.1611 10.6415 15.9593 10.6537 15.7612 10.6251C15.5631 10.5965 15.373 10.5277 15.2025 10.4229C15.0319 10.3181 14.8847 10.1795 14.7697 10.0157C14.6471 9.85709 14.5582 9.67513 14.5084 9.48096C14.4586 9.28678 14.449 9.08449 14.4801 8.88647C14.5113 8.68845 14.5825 8.49888 14.6895 8.32937C14.7966 8.15987 14.937 8.014 15.1024 7.90071C15.3058 7.74898 15.5457 7.65351 15.7977 7.6239C16.0498 7.59429 16.3052 7.6316 16.5382 7.73205L16.4197 8.00554C16.2419 7.91438 16.0505 7.88247 15.8408 7.90526C15.6357 7.92805 15.4443 8.00098 15.2711 8.13317C15.1369 8.22428 15.0228 8.34196 14.9359 8.47894C14.849 8.61592 14.7912 8.76928 14.766 8.92951C14.7408 9.08975 14.7487 9.25346 14.7893 9.4105C14.83 9.56754 14.9024 9.71456 15.0021 9.84248C15.0951 9.97611 15.2145 10.0892 15.3529 10.1749C15.4914 10.2605 15.6459 10.3168 15.807 10.3403C15.9681 10.3638 16.1323 10.354 16.2894 10.3115C16.4465 10.269 16.5933 10.1947 16.7206 10.0932C16.8938 9.96555 17.0214 9.80601 17.1034 9.61457C17.1855 9.42313 17.2083 9.22713 17.1764 9.03113L17.4726 8.99466C17.5 9.24682 17.4604 9.50172 17.358 9.73376C17.2556 9.96579 17.0939 10.1668 16.8892 10.3165L16.8846 10.3211ZM19.8064 5.05186L19.9386 5.29344L19.1546 5.72191L20.4081 8.03289L20.1528 8.16964L18.8993 5.85865L18.1153 6.28712L17.9832 6.04554L19.8064 5.05186ZM28.5489 3.88042L28.5034 3.6206L29.9756 3.3699L30.0212 3.62972L28.5489 3.88042ZM40.113 4.98805C39.9148 4.9592 39.7245 4.89021 39.5539 4.78531C39.3833 4.6804 39.2358 4.54178 39.1206 4.37794C39.0054 4.21409 38.9249 4.02846 38.8839 3.83241C38.8429 3.63635 38.8423 3.43399 38.8823 3.23772C38.9142 3.04005 38.9861 2.85098 39.0936 2.68206C39.2011 2.51314 39.3419 2.36793 39.5075 2.25529C39.673 2.14266 39.8598 2.06497 40.0564 2.02698C40.253 1.989 40.4552 1.99151 40.6508 2.03436C40.9009 2.07838 41.1349 2.18751 41.3293 2.35075C41.5238 2.51399 41.6718 2.72559 41.7585 2.96423L41.4759 3.06451C41.4187 2.87461 41.3079 2.70525 41.1568 2.57678C40.9972 2.44004 40.8104 2.34888 40.6007 2.31241C40.4419 2.2768 40.2775 2.27427 40.1177 2.30499C39.9578 2.33571 39.8061 2.39901 39.6718 2.49095C39.5375 2.58289 39.4236 2.7015 39.3372 2.83939C39.2508 2.97728 39.1937 3.13149 39.1694 3.29241C39.1367 3.45146 39.1367 3.61551 39.1695 3.77455C39.2023 3.93358 39.2672 4.08426 39.3602 4.21737C39.4532 4.35048 39.5723 4.46322 39.7104 4.54871C39.8485 4.63419 40.0025 4.69063 40.1631 4.71456C40.3728 4.75102 40.5779 4.73735 40.7739 4.66898C40.9699 4.59149 41.1294 4.47753 41.2479 4.32256L41.4759 4.50944C41.3102 4.70253 41.0966 4.84847 40.8564 4.93251C40.6163 5.01655 40.3583 5.03571 40.1084 4.98805H40.113ZM45.7286 6.12758C45.364 6.30991 44.9765 6.32358 44.5799 6.18228C44.3916 6.11877 44.2184 6.01721 44.0709 5.88391C43.9235 5.7506 43.8051 5.58841 43.723 5.4074C43.638 5.22901 43.5901 5.0352 43.5823 4.83775C43.5745 4.64029 43.6068 4.44331 43.6774 4.25874C43.8142 3.86674 44.0694 3.58414 44.4386 3.40637C44.8124 3.2286 45.1953 3.21037 45.5919 3.35167C45.9884 3.49297 46.2756 3.75279 46.4488 4.12656C46.622 4.49577 46.6402 4.87865 46.5035 5.27521C46.4395 5.46329 46.3378 5.63631 46.2045 5.78367C46.0713 5.93102 45.9093 6.04961 45.7286 6.13214V6.12758ZM43.9828 5.29344C44.1196 5.58972 44.352 5.7994 44.6757 5.91335C44.8257 5.96937 44.9855 5.99464 45.1455 5.98766C45.3055 5.98067 45.4625 5.94156 45.6071 5.87267C45.7517 5.80377 45.8809 5.7065 45.9872 5.58663C46.0934 5.46677 46.1744 5.32675 46.2254 5.17493C46.2824 5.0255 46.3086 4.86608 46.3023 4.70627C46.296 4.54646 46.2575 4.38958 46.189 4.24507C46.1236 4.09778 46.0282 3.96575 45.9089 3.85744C45.7896 3.74912 45.649 3.6669 45.4961 3.61604C45.3464 3.55887 45.1865 3.53341 45.0264 3.54125C44.8664 3.5491 44.7097 3.59009 44.5663 3.66162C44.2654 3.80748 44.0649 4.03995 43.9464 4.35902C43.8324 4.67809 43.8461 4.98805 43.9828 5.29344ZM51.1756 5.98172L51.4308 6.11847L50.0133 8.65736L49.7945 8.53429L49.5392 5.67633L48.386 7.74117L48.1307 7.59987L49.5483 5.06553L49.7671 5.18861L50.0224 8.04201L51.1756 5.98172ZM55.5058 8.95364L55.3372 9.17243L54.6307 8.63001L53.0353 10.7222L52.8074 10.5444L54.4028 8.4568L53.6917 7.90982L53.8558 7.69559L55.5058 8.95364ZM56.4767 13.8354L56.8003 13.1426L55.8431 12.158L55.1412 12.4634L54.9269 12.2401L57.7849 11.0139L57.9946 11.2282L56.6909 14.0542L56.4767 13.8354ZM56.1121 12.0395L56.9234 12.8782L57.6299 11.374L56.1075 12.0395H56.1121ZM59.321 17.4227C59.2007 17.2622 59.1144 17.0789 59.0675 16.8839C59.0206 16.6889 59.014 16.4864 59.0482 16.2888C59.0823 16.0912 59.1565 15.9027 59.2661 15.7347C59.3757 15.5668 59.5185 15.423 59.6856 15.3123C59.8475 15.1947 60.0316 15.1114 60.2268 15.0674C60.4219 15.0234 60.624 15.0197 60.8206 15.0564C61.0172 15.093 61.2043 15.1694 61.3705 15.2808C61.5366 15.3922 61.6783 15.5363 61.787 15.7043C61.9316 15.9117 62.0195 16.1533 62.0419 16.4052C62.0643 16.6571 62.0204 16.9104 61.9146 17.1401L61.6457 17.017C61.7368 16.8392 61.7824 16.6478 61.7596 16.4381C61.7427 16.2313 61.6702 16.0329 61.5499 15.8638C61.4624 15.7274 61.3479 15.6104 61.2134 15.52C61.0789 15.4296 60.9273 15.3678 60.768 15.3383C60.6086 15.3088 60.4449 15.3123 60.287 15.3486C60.129 15.3849 59.9802 15.4532 59.8497 15.5493C59.715 15.6395 59.6 15.7562 59.5116 15.8922C59.4233 16.0282 59.3634 16.1807 59.3357 16.3405C59.308 16.5003 59.3131 16.6641 59.3505 16.8219C59.3879 16.9797 59.457 17.1282 59.5535 17.2586C59.6765 17.4409 59.8315 17.5685 60.0184 17.6552C60.2098 17.7463 60.4013 17.7737 60.6018 17.7463L60.6292 18.0426C60.3759 18.0635 60.1215 18.0171 59.8919 17.9083C59.6622 17.7994 59.4653 17.6319 59.321 17.4227ZM64.5036 20.4858L64.262 20.6088L63.8518 19.8157L61.5135 21.0099L61.3767 20.7547L63.7242 19.5559L63.3185 18.7628L63.5646 18.6352L64.5036 20.4858ZM65.438 29.2693L65.7024 29.2329L65.9075 30.7097L65.6477 30.7462L65.438 29.2693ZM64.0204 40.806C64.0549 40.6089 64.1292 40.421 64.2388 40.2536C64.3483 40.0862 64.4908 39.9429 64.6576 39.8324C64.8244 39.7219 65.012 39.6466 65.2088 39.611C65.4057 39.5754 65.6078 39.5803 65.8027 39.6254C66.2129 39.7166 66.532 39.9263 66.7599 40.2681C66.9832 40.61 67.0516 40.9974 66.9605 41.4259C66.9108 41.6751 66.796 41.9067 66.6279 42.0972C66.4598 42.2878 66.2443 42.4304 66.0032 42.5107L65.9121 42.2281C66.1035 42.1734 66.2676 42.0732 66.4089 41.9182C66.5457 41.7632 66.6368 41.5809 66.6824 41.3712C66.7225 41.2135 66.7297 41.0492 66.7036 40.8886C66.6774 40.7279 66.6184 40.5744 66.5304 40.4376C66.4423 40.3007 66.3269 40.1835 66.1915 40.0932C66.0562 40.0028 65.9036 39.9414 65.7434 39.9126C65.5854 39.8761 65.4216 39.8722 65.262 39.9011C65.1024 39.93 64.9504 39.9911 64.8152 40.0806C64.68 40.1702 64.5645 40.2864 64.4756 40.422C64.3868 40.5577 64.3265 40.7101 64.2985 40.8698C64.2529 41.0795 64.262 41.28 64.3304 41.4806C64.3942 41.6766 64.5036 41.8407 64.6586 41.9638L64.4671 42.1871C64.2757 42.023 64.139 41.8225 64.0569 41.5718C63.9794 41.3256 63.9657 41.0704 64.0204 40.806ZM62.7305 46.4034C62.649 46.2226 62.6053 46.027 62.6021 45.8287C62.599 45.6304 62.6365 45.4335 62.7123 45.2502C62.8627 44.8582 63.1271 44.5801 63.5054 44.4161C63.6853 44.3347 63.8799 44.2907 64.0774 44.2868C64.2748 44.2829 64.471 44.3191 64.654 44.3933C65.046 44.5482 65.3241 44.8081 65.4882 45.1864C65.6568 45.5647 65.6614 45.9476 65.511 46.3396C65.443 46.5256 65.3375 46.6956 65.201 46.839C65.0646 46.9825 64.9001 47.0965 64.7178 47.1737C64.3395 47.3378 63.9566 47.3469 63.5692 47.1965C63.3828 47.1283 63.2123 47.0228 63.068 46.8865C62.9238 46.7501 62.809 46.5857 62.7305 46.4034ZM63.6148 44.6759C63.3139 44.8126 63.0997 45.036 62.9766 45.355C62.8536 45.6741 62.8581 45.9841 62.9903 46.2849C63.127 46.5903 63.355 46.8 63.674 46.923C63.9931 47.0461 64.3031 47.0461 64.6039 46.9139C64.7519 46.8521 64.8855 46.7603 64.9961 46.6441C65.1067 46.528 65.192 46.3901 65.2466 46.2393C65.3742 45.9202 65.3651 45.6057 65.2284 45.3049C65.1642 45.1582 65.0709 45.0259 64.9541 44.9163C64.8374 44.8066 64.6996 44.7217 64.5492 44.6668C64.4008 44.6054 64.2416 44.5746 64.0811 44.5761C63.9205 44.5777 63.7619 44.6116 63.6148 44.6759ZM62.7442 51.8641L62.5983 52.1148L60.1004 50.6243L60.2281 50.41L63.086 50.2323L61.0576 49.0198L61.2081 48.7737L63.7014 50.2596L63.5737 50.4738L60.7158 50.6562L62.7442 51.8641ZM59.6537 56.1168L59.4395 55.9436L60.0002 55.2508L57.9581 53.5962L58.1404 53.3683L60.1825 55.0229L60.7431 54.33L60.9574 54.5032L59.6537 56.1168ZM54.7583 56.9601L55.442 57.302L56.4539 56.3675L56.1668 55.661L56.3947 55.4513L57.5388 58.3458L57.32 58.5463L54.5349 57.1698L54.7629 56.9601H54.7583ZM56.5633 56.641L55.7018 57.4341L57.1878 58.1817L56.5633 56.641ZM51.1072 59.7132C51.2701 59.5968 51.4551 59.515 51.6508 59.4728C51.8465 59.4306 52.0488 59.4288 52.2452 59.4677C52.4416 59.5066 52.628 59.5852 52.7928 59.6987C52.9577 59.8123 53.0976 59.9584 53.204 60.128C53.4319 60.4835 53.5048 60.8573 53.4273 61.2584C53.388 61.4569 53.3082 61.6451 53.193 61.8114C53.0777 61.9777 52.9294 62.1184 52.7573 62.2248C52.5457 62.3657 52.3007 62.4484 52.047 62.4644C51.7933 62.4804 51.5399 62.4292 51.3123 62.3159L51.4491 62.0515C51.6177 62.1518 51.8137 62.1928 52.0188 62.1837C52.224 62.1701 52.42 62.1062 52.6023 61.9877C52.7408 61.9031 52.8605 61.7911 52.954 61.6585C53.0476 61.5259 53.113 61.3755 53.1463 61.2167C53.1796 61.0579 53.1801 60.8939 53.1477 60.7349C53.1153 60.5759 53.0506 60.4252 52.9578 60.2921C52.8716 60.1552 52.7585 60.0373 52.6254 59.9454C52.4923 59.8536 52.3418 59.7897 52.1833 59.7578C52.0247 59.7258 51.8613 59.7264 51.703 59.7595C51.5446 59.7925 51.3947 59.8574 51.2622 59.9502C51.0799 60.0687 50.9431 60.2237 50.852 60.4061C50.7608 60.5929 50.7243 60.7844 50.7426 60.9849L50.4508 61.0032C50.4372 60.7494 50.4906 60.4966 50.6059 60.2701C50.7211 60.0436 50.894 59.8515 51.1072 59.7132ZM47.9074 64.8183L47.7889 64.5677L48.5911 64.1848L47.4607 61.8145L47.7251 61.6869L48.8555 64.0571L49.6577 63.6742L49.7762 63.9249L47.9074 64.8183ZM39.1193 65.5203L39.1466 65.7847L37.6607 65.9533L37.6333 65.6935L39.1147 65.5203H39.1193Z" stroke="black" stroke-width="0.5"/>
</g>
<defs>
<filter id="filter0_d_365_724" x="0.749634" y="0.750244" width="67.5" height="67.8762" filterUnits="userSpaceOnUse" color-interpolation-filters="sRGB">
<feFlood flood-opacity="0" result="BackgroundImageFix"/>
<feColorMatrix in="SourceAlpha" type="matrix" values="0 0 0 0 0 0 0 0 0 0 0 0 0 0 0 0 0 0 127 0" result="hardAlpha"/>
<feOffset/>
<feGaussianBlur stdDeviation="0.5"/>
<feComposite in2="hardAlpha" operator="out"/>
<feColorMatrix type="matrix" values="0 0 0 0 1 0 0 0 0 1 0 0 0 0 1 0 0 0 1 0"/>
<feBlend mode="normal" in2="BackgroundImageFix" result="effect1_dropShadow_365_724"/>
<feBlend mode="normal" in="SourceGraphic" in2="effect1_dropShadow_365_724" result="shape"/>
</filter>
</defs>
</svg>
