<svg width="67" height="67" viewBox="0 0 67 67" fill="none" xmlns="http://www.w3.org/2000/svg">
<path d="M29.7779 63.3808C29.9773 63.3991 30.1708 63.4578 30.3468 63.5535C30.5227 63.6492 30.6772 63.7797 30.8009 63.9371C30.9247 64.0946 31.015 64.2756 31.0664 64.4691C31.1177 64.6627 31.1291 64.8646 31.0997 65.0627C31.0782 65.2615 31.0164 65.4538 30.9181 65.6279C30.8198 65.8021 30.687 65.9543 30.5279 66.0755C30.3688 66.1966 30.1867 66.284 29.9927 66.3325C29.7987 66.3809 29.5969 66.3894 29.3996 66.3572C29.1468 66.3276 28.9064 66.232 28.7024 66.0799C28.4983 65.9279 28.3379 65.7249 28.2372 65.4912L28.5107 65.3772C28.5836 65.5596 28.6976 65.7191 28.8617 65.8467C29.0258 65.9744 29.2172 66.0518 29.4315 66.0746C29.5914 66.1017 29.7552 66.0956 29.9127 66.0568C30.0702 66.0179 30.218 65.9472 30.3471 65.8489C30.4761 65.7506 30.5836 65.6269 30.6629 65.4854C30.7422 65.3439 30.7916 65.1876 30.808 65.0263C30.8323 64.8658 30.8236 64.702 30.7825 64.545C30.7414 64.388 30.6687 64.2411 30.5689 64.1131C30.4691 63.9851 30.3442 63.8788 30.2019 63.8007C30.0597 63.7226 29.903 63.6743 29.7414 63.6588C29.5272 63.6315 29.3221 63.6588 29.1306 63.7409C28.9392 63.8229 28.7888 63.9414 28.6748 64.1055L28.4378 63.9323C28.5921 63.7309 28.7969 63.5738 29.0314 63.4769C29.2659 63.3801 29.5219 63.3469 29.7733 63.3808H29.7779ZM24.103 62.5421C24.4631 62.3461 24.846 62.3096 25.2471 62.4281C25.6528 62.5512 25.949 62.7928 26.145 63.1529C26.341 63.5175 26.3729 63.8958 26.259 64.297C26.2063 64.4872 26.1152 64.6646 25.9914 64.8182C25.8675 64.9719 25.7135 65.0985 25.5388 65.1904C25.1741 65.3909 24.7913 65.4274 24.3901 65.3089C24.1983 65.2557 24.0195 65.1635 23.865 65.038C23.7105 64.9125 23.5836 64.7564 23.4922 64.5796C23.3965 64.4074 23.3371 64.2175 23.3175 64.0216C23.2979 63.8256 23.3186 63.6277 23.3782 63.44C23.4316 63.2489 23.5234 63.0707 23.648 62.9163C23.7727 62.7619 23.9275 62.6346 24.103 62.5421ZM25.8943 63.285C25.82 63.142 25.7168 63.0158 25.5913 62.9146C25.4658 62.8134 25.3206 62.7393 25.165 62.697C25.0121 62.649 24.8512 62.6323 24.6917 62.6478C24.5322 62.6633 24.3774 62.7107 24.2366 62.7873C24.0958 62.8638 23.9719 62.9679 23.8722 63.0934C23.7725 63.2188 23.6991 63.3631 23.6563 63.5175C23.6077 63.6706 23.5907 63.832 23.6064 63.9918C23.622 64.1517 23.67 64.3066 23.7474 64.4474C23.8979 64.7436 24.1394 64.9397 24.4722 65.0399C24.8004 65.1311 25.1103 65.1037 25.3975 64.9442C25.5392 64.8687 25.6641 64.7651 25.7644 64.6397C25.8647 64.5143 25.9384 64.3698 25.9809 64.2149C26.0767 63.8867 26.0493 63.5768 25.8898 63.285H25.8943ZM18.6697 62.9842L18.4099 62.8566L19.6861 60.2493L19.914 60.3587L20.3243 63.1939L21.3635 61.0743L21.6234 61.202L20.3425 63.8092L20.1192 63.6998L19.7089 60.8601L18.6697 62.9842ZM14.189 60.2402L14.344 60.0123L15.0824 60.5137L16.5638 58.344L16.8054 58.5081L15.3194 60.6823L16.0579 61.1837L15.9029 61.4116L14.189 60.2402ZM12.9583 55.4177L12.6757 56.1287L13.6876 57.0632L14.3713 56.7213L14.5947 56.931L11.8051 58.3075L11.5863 58.1024L12.735 55.2126L12.9629 55.4177H12.9583ZM13.4232 57.1953L12.5663 56.3977L11.9373 57.9383L13.4232 57.1953ZM9.9317 51.9899C10.06 52.1436 10.1556 52.3219 10.2126 52.5137C10.2697 52.7056 10.287 52.9071 10.2636 53.1059C10.2401 53.3048 10.1763 53.4967 10.0762 53.67C9.976 53.8434 9.84154 53.9944 9.68101 54.114C9.52626 54.241 9.34718 54.335 9.15477 54.3902C8.96236 54.4454 8.7607 54.4607 8.56217 54.435C8.36365 54.4094 8.17246 54.3435 8.00037 54.2412C7.82828 54.139 7.67891 54.0026 7.56147 53.8405C7.40424 53.6412 7.30213 53.4041 7.26533 53.1529C7.22853 52.9018 7.25835 52.6453 7.35179 52.4093L7.62528 52.5187C7.54779 52.701 7.51589 52.8925 7.54323 53.0976C7.57514 53.3072 7.65263 53.4941 7.78482 53.6673C7.87981 53.7991 8.00088 53.91 8.14052 53.993C8.28015 54.076 8.43536 54.1294 8.59651 54.15C8.75766 54.1705 8.9213 54.1576 9.07729 54.1123C9.23327 54.0669 9.37825 53.9899 9.50324 53.8861C9.63359 53.7893 9.74281 53.6668 9.82423 53.5263C9.90564 53.3857 9.95753 53.2301 9.97673 53.0688C9.99593 52.9075 9.98203 52.744 9.93589 52.5883C9.88974 52.4326 9.81232 52.2879 9.70835 52.1631C9.57161 51.9945 9.41207 51.8714 9.22063 51.7939C9.03645 51.7165 8.83374 51.6944 8.63719 51.7301L8.59161 51.4384C8.84332 51.4042 9.09962 51.4366 9.33482 51.5326C9.57001 51.6286 9.77585 51.7848 9.9317 51.9854V51.9899ZM4.59411 49.2049L4.83114 49.0682L5.27784 49.8431L7.55235 48.5212L7.69821 48.7764L5.41914 50.0937L5.86584 50.8686L5.63337 51.0054L4.59411 49.2095V49.2049ZM3.1902 40.4852L2.93039 40.5399L2.64323 39.0721L2.90304 39.022L3.1902 40.4852ZM3.99244 28.8892C3.96877 29.0878 3.90491 29.2794 3.80474 29.4525C3.70458 29.6255 3.57022 29.7764 3.40985 29.8958C3.24948 30.0152 3.06647 30.1007 2.87198 30.1471C2.67748 30.1935 2.47557 30.1997 2.27857 30.1655C2.08021 30.1392 1.88928 30.0728 1.71746 29.9703C1.54563 29.8677 1.39651 29.7312 1.2792 29.5691C1.16188 29.407 1.07885 29.2227 1.03516 29.0274C0.991468 28.8322 0.98804 28.6301 1.02508 28.4334C1.061 28.1812 1.16298 27.9429 1.32067 27.7428C1.47837 27.5426 1.68618 27.3878 1.92304 27.2939L2.03243 27.5719C1.84099 27.6357 1.68146 27.7451 1.54927 27.9092C1.42164 28.0688 1.3396 28.2556 1.30313 28.4699C1.27117 28.6297 1.27254 28.7945 1.30714 28.9538C1.34175 29.1131 1.40885 29.2636 1.50426 29.3957C1.59966 29.5279 1.72131 29.639 1.8616 29.7221C2.00189 29.8051 2.15781 29.8583 2.3196 29.8783C2.47935 29.9068 2.64323 29.9024 2.80122 29.8654C2.95922 29.8285 3.10802 29.7597 3.23855 29.6633C3.36908 29.5669 3.47859 29.4449 3.5604 29.3047C3.64221 29.1646 3.69461 29.0093 3.71439 28.8482C3.7463 28.634 3.72807 28.4334 3.65058 28.2374C3.57951 28.0513 3.45601 27.8898 3.29504 27.7725L3.47737 27.5446C3.67477 27.7049 3.82634 27.9146 3.91678 28.1523C4.00722 28.39 4.03332 28.6473 3.99244 28.8983V28.8892ZM4.98156 23.2326C5.16388 23.5972 5.19123 23.9801 5.0636 24.3812C5.00536 24.5704 4.90899 24.7457 4.78042 24.8962C4.65186 25.0467 4.49382 25.1693 4.31607 25.2564C3.95141 25.4433 3.56397 25.4706 3.16741 25.3384C2.97935 25.2804 2.80512 25.1846 2.65541 25.0568C2.5057 24.9291 2.38367 24.7721 2.29681 24.5954C2.20299 24.4199 2.14647 24.2268 2.13078 24.0284C2.1151 23.8299 2.14058 23.6304 2.20564 23.4422C2.34239 23.0457 2.58853 22.754 2.95774 22.5671C3.32239 22.3847 3.70527 22.3528 4.10183 22.485C4.29162 22.5432 4.46753 22.6395 4.6188 22.7681C4.77006 22.8966 4.8935 23.0547 4.98156 23.2326ZM4.193 25.0011C4.33643 24.931 4.46388 24.8321 4.5674 24.7105C4.67092 24.589 4.74828 24.4474 4.79467 24.2946C4.8469 24.1427 4.86795 23.9818 4.85656 23.8216C4.84517 23.6614 4.80158 23.5051 4.72838 23.3621C4.65519 23.2191 4.5539 23.0924 4.43058 22.9894C4.30726 22.8865 4.16444 22.8095 4.01067 22.7631C3.86042 22.71 3.70098 22.6879 3.54196 22.6981C3.38293 22.7082 3.22762 22.7505 3.08537 22.8223C2.78453 22.9682 2.58397 23.2052 2.47457 23.5334C2.36974 23.857 2.39253 24.1715 2.54751 24.4633C2.61925 24.6064 2.71924 24.7335 2.84145 24.8369C2.96366 24.9403 3.10556 25.0179 3.25858 25.0649C3.57765 25.1698 3.89672 25.1515 4.193 25.0011ZM4.68072 17.781L4.81746 17.5212L7.3837 18.875L7.26975 19.0983L4.4209 19.4265L6.51765 20.5296L6.38091 20.7848L3.81011 19.4311L3.92862 19.2123L6.77291 18.8841L4.67616 17.781H4.68072ZM7.53412 13.3687L7.75747 13.5328L7.23328 14.253L9.36649 15.7982L9.19328 16.0307L7.06463 14.49L6.54044 15.2102L6.32165 15.0507L7.53412 13.3687ZM12.384 12.2656L11.682 11.9603L10.7248 12.9494L11.0439 13.6377L10.8342 13.861L9.53059 11.0349L9.74026 10.8162L12.5982 12.0469L12.384 12.2656ZM10.6018 12.6804L11.4177 11.8417L9.89524 11.1763L10.6018 12.6804ZM15.8846 9.32108C15.728 9.44568 15.5475 9.53692 15.3543 9.5892C15.1611 9.64148 14.9593 9.65369 14.7612 9.62509C14.5631 9.59648 14.373 9.52767 14.2025 9.42287C14.0319 9.31807 13.8847 9.1795 13.7697 9.01569C13.6471 8.85709 13.5582 8.67513 13.5084 8.48096C13.4586 8.28678 13.449 8.08449 13.4801 7.88647C13.5113 7.68845 13.5825 7.49888 13.6895 7.32937C13.7966 7.15987 13.937 7.014 14.1024 6.90071C14.3058 6.74898 14.5457 6.65351 14.7977 6.6239C15.0498 6.59429 15.3052 6.6316 15.5382 6.73205L15.4197 7.00554C15.2419 6.91438 15.0505 6.88247 14.8408 6.90526C14.6357 6.92805 14.4443 7.00098 14.2711 7.13317C14.1369 7.22428 14.0228 7.34196 13.9359 7.47894C13.849 7.61592 13.7912 7.76928 13.766 7.92951C13.7408 8.08975 13.7487 8.25346 13.7893 8.4105C13.83 8.56754 13.9024 8.71456 14.0021 8.84248C14.0951 8.97611 14.2145 9.08924 14.3529 9.17487C14.4914 9.2605 14.6459 9.31681 14.807 9.34031C14.9681 9.36381 15.1323 9.354 15.2894 9.31149C15.4465 9.26899 15.5933 9.19468 15.7206 9.09318C15.8938 8.96555 16.0214 8.80601 16.1034 8.61457C16.1855 8.42313 16.2083 8.22713 16.1764 8.03113L16.4726 7.99466C16.5 8.24682 16.4604 8.50172 16.358 8.73376C16.2556 8.96579 16.0939 9.16678 15.8892 9.31653L15.8846 9.32108ZM18.8064 4.05186L18.9386 4.29344L18.1546 4.72191L19.4081 7.03289L19.1528 7.16964L17.8993 4.85865L17.1153 5.28712L16.9832 5.04554L18.8064 4.05186ZM27.5489 2.88042L27.5034 2.6206L28.9756 2.3699L29.0212 2.62972L27.5489 2.88042ZM39.113 3.98805C38.9148 3.9592 38.7245 3.89021 38.5539 3.78531C38.3833 3.6804 38.2358 3.54178 38.1206 3.37794C38.0054 3.21409 37.9249 3.02846 37.8839 2.83241C37.8429 2.63635 37.8423 2.43399 37.8823 2.23772C37.9142 2.04005 37.9861 1.85098 38.0936 1.68206C38.2011 1.51314 38.3419 1.36793 38.5075 1.25529C38.673 1.14266 38.8598 1.06497 39.0564 1.02698C39.253 0.988997 39.4552 0.991508 39.6508 1.03436C39.9009 1.07838 40.1349 1.18751 40.3293 1.35075C40.5238 1.51399 40.6718 1.72559 40.7585 1.96423L40.4759 2.06451C40.4187 1.87461 40.3079 1.70525 40.1568 1.57678C39.9972 1.44004 39.8104 1.34888 39.6007 1.31241C39.4419 1.2768 39.2775 1.27427 39.1177 1.30499C38.9578 1.33571 38.8061 1.39901 38.6718 1.49095C38.5375 1.58289 38.4236 1.7015 38.3372 1.83939C38.2508 1.97728 38.1937 2.13149 38.1694 2.29241C38.1367 2.45146 38.1367 2.61551 38.1695 2.77455C38.2023 2.93358 38.2672 3.08426 38.3602 3.21737C38.4532 3.35048 38.5723 3.46322 38.7104 3.54871C38.8485 3.63419 39.0025 3.69063 39.1631 3.71456C39.3728 3.75102 39.5779 3.73735 39.7739 3.66898C39.9699 3.59149 40.1294 3.47753 40.2479 3.32256L40.4759 3.50944C40.3102 3.70253 40.0966 3.84847 39.8564 3.93251C39.6163 4.01655 39.3583 4.03571 39.1084 3.98805H39.113ZM44.7286 5.12758C44.364 5.30991 43.9765 5.32358 43.5799 5.18228C43.3916 5.11877 43.2184 5.01721 43.0709 4.88391C42.9235 4.7506 42.8051 4.58841 42.723 4.4074C42.638 4.22901 42.5901 4.0352 42.5823 3.83775C42.5745 3.64029 42.6068 3.44331 42.6774 3.25874C42.8142 2.86674 43.0694 2.58414 43.4386 2.40637C43.8124 2.2286 44.1953 2.21037 44.5919 2.35167C44.9884 2.49297 45.2756 2.75279 45.4488 3.12656C45.622 3.49577 45.6402 3.87865 45.5035 4.27521C45.4395 4.46329 45.3378 4.63631 45.2045 4.78367C45.0713 4.93102 44.9093 5.04961 44.7286 5.13214V5.12758ZM42.9828 4.29344C43.1196 4.58972 43.352 4.7994 43.6757 4.91335C43.8257 4.96937 43.9855 4.99464 44.1455 4.98766C44.3055 4.98067 44.4625 4.94156 44.6071 4.87267C44.7517 4.80377 44.8809 4.7065 44.9872 4.58663C45.0934 4.46677 45.1744 4.32675 45.2254 4.17493C45.2824 4.0255 45.3086 3.86608 45.3023 3.70627C45.296 3.54646 45.2575 3.38958 45.189 3.24507C45.1236 3.09778 45.0282 2.96575 44.9089 2.85744C44.7896 2.74912 44.649 2.6669 44.4961 2.61604C44.3464 2.55887 44.1865 2.53341 44.0264 2.54125C43.8664 2.5491 43.7097 2.59009 43.5663 2.66162C43.2654 2.80748 43.0649 3.03995 42.9464 3.35902C42.8324 3.67809 42.8461 3.98805 42.9828 4.29344ZM50.1756 4.98172L50.4308 5.11847L49.0133 7.65736L48.7945 7.53429L48.5392 4.67633L47.386 6.74117L47.1307 6.59987L48.5483 4.06553L48.7671 4.18861L49.0224 7.04201L50.1756 4.98172ZM54.5058 7.95364L54.3372 8.17243L53.6307 7.63001L52.0353 9.7222L51.8074 9.54443L53.4028 7.4568L52.6917 6.90982L52.8558 6.69559L54.5058 7.95364ZM55.4767 12.8354L55.8003 12.1426L54.8431 11.158L54.1412 11.4634L53.9269 11.2401L56.7849 10.0139L56.9946 10.2282L55.6909 13.0542L55.4767 12.8354ZM55.1121 11.0395L55.9234 11.8782L56.6299 10.374L55.1075 11.0395H55.1121ZM58.321 16.4227C58.2007 16.2622 58.1144 16.0789 58.0675 15.8839C58.0206 15.6889 58.014 15.4864 58.0482 15.2888C58.0823 15.0912 58.1565 14.9027 58.2661 14.7347C58.3757 14.5668 58.5185 14.423 58.6856 14.3123C58.8475 14.1947 59.0316 14.1114 59.2268 14.0674C59.4219 14.0234 59.624 14.0197 59.8206 14.0564C60.0172 14.093 60.2043 14.1694 60.3705 14.2808C60.5366 14.3922 60.6783 14.5363 60.787 14.7043C60.9316 14.9117 61.0195 15.1533 61.0419 15.4052C61.0643 15.6571 61.0204 15.9104 60.9146 16.1401L60.6457 16.017C60.7368 15.8392 60.7824 15.6478 60.7596 15.4381C60.7427 15.2313 60.6702 15.0329 60.5499 14.8638C60.4624 14.7274 60.3479 14.6104 60.2134 14.52C60.0789 14.4296 59.9273 14.3678 59.768 14.3383C59.6086 14.3088 59.4449 14.3123 59.287 14.3486C59.129 14.3849 58.9802 14.4532 58.8497 14.5493C58.715 14.6395 58.6 14.7562 58.5116 14.8922C58.4233 15.0282 58.3634 15.1807 58.3357 15.3405C58.308 15.5003 58.3131 15.6641 58.3505 15.8219C58.3879 15.9797 58.457 16.1282 58.5535 16.2586C58.6765 16.4409 58.8315 16.5685 59.0184 16.6552C59.2098 16.7463 59.4013 16.7737 59.6018 16.7463L59.6292 17.0426C59.3759 17.0635 59.1215 17.0171 58.8919 16.9083C58.6622 16.7994 58.4653 16.6319 58.321 16.4227ZM63.5036 19.4858L63.262 19.6088L62.8518 18.8157L60.5135 20.0099L60.3767 19.7547L62.7242 18.5559L62.3185 17.7628L62.5646 17.6352L63.5036 19.4858ZM64.438 28.2693L64.7024 28.2329L64.9075 29.7097L64.6477 29.7462L64.438 28.2693ZM63.0204 39.806C63.0549 39.6089 63.1292 39.421 63.2388 39.2536C63.3483 39.0862 63.4908 38.9429 63.6576 38.8324C63.8244 38.7219 64.012 38.6466 64.2088 38.611C64.4057 38.5754 64.6078 38.5803 64.8027 38.6254C65.2129 38.7166 65.532 38.9263 65.7599 39.2681C65.9832 39.61 66.0516 39.9974 65.9605 40.4259C65.9108 40.6751 65.796 40.9067 65.6279 41.0972C65.4598 41.2878 65.2443 41.4304 65.0032 41.5107L64.9121 41.2281C65.1035 41.1734 65.2676 41.0732 65.4089 40.9182C65.5457 40.7632 65.6368 40.5809 65.6824 40.3712C65.7225 40.2135 65.7297 40.0492 65.7036 39.8886C65.6774 39.7279 65.6184 39.5744 65.5304 39.4376C65.4423 39.3007 65.3269 39.1835 65.1915 39.0932C65.0562 39.0028 64.9036 38.9414 64.7434 38.9126C64.5854 38.8761 64.4216 38.8722 64.262 38.9011C64.1024 38.93 63.9504 38.9911 63.8152 39.0806C63.68 39.1702 63.5645 39.2864 63.4756 39.422C63.3868 39.5577 63.3265 39.7101 63.2985 39.8698C63.2529 40.0795 63.262 40.28 63.3304 40.4806C63.3942 40.6766 63.5036 40.8407 63.6586 40.9638L63.4671 41.1871C63.2757 41.023 63.139 40.8225 63.0569 40.5718C62.9794 40.3256 62.9657 40.0704 63.0204 39.806ZM61.7305 45.4034C61.649 45.2226 61.6053 45.027 61.6021 44.8287C61.599 44.6304 61.6365 44.4335 61.7123 44.2502C61.8627 43.8582 62.1271 43.5801 62.5054 43.4161C62.6853 43.3347 62.8799 43.2907 63.0774 43.2868C63.2748 43.2829 63.471 43.3191 63.654 43.3933C64.046 43.5482 64.3241 43.8081 64.4882 44.1864C64.6568 44.5647 64.6614 44.9476 64.511 45.3396C64.443 45.5256 64.3375 45.6956 64.201 45.839C64.0646 45.9825 63.9001 46.0965 63.7178 46.1737C63.3395 46.3378 62.9566 46.3469 62.5692 46.1965C62.3828 46.1283 62.2123 46.0228 62.068 45.8865C61.9238 45.7501 61.809 45.5857 61.7305 45.4034ZM62.6148 43.6759C62.3139 43.8126 62.0997 44.036 61.9766 44.355C61.8536 44.6741 61.8581 44.9841 61.9903 45.2849C62.127 45.5903 62.355 45.8 62.674 45.923C62.9931 46.0461 63.3031 46.0461 63.6039 45.9139C63.7519 45.8521 63.8855 45.7603 63.9961 45.6441C64.1067 45.528 64.192 45.3901 64.2466 45.2393C64.3742 44.9202 64.3651 44.6057 64.2284 44.3049C64.1642 44.1582 64.0709 44.0259 63.9541 43.9163C63.8374 43.8066 63.6996 43.7217 63.5492 43.6668C63.4008 43.6054 63.2416 43.5746 63.0811 43.5761C62.9205 43.5777 62.7619 43.6116 62.6148 43.6759ZM61.7442 50.8641L61.5983 51.1148L59.1004 49.6243L59.2281 49.41L62.086 49.2323L60.0576 48.0198L60.2081 47.7737L62.7014 49.2596L62.5737 49.4738L59.7158 49.6562L61.7442 50.8641ZM58.6537 55.1168L58.4395 54.9436L59.0002 54.2508L56.9581 52.5962L57.1404 52.3683L59.1825 54.0229L59.7431 53.33L59.9574 53.5032L58.6537 55.1168ZM53.7583 55.9601L54.442 56.302L55.4539 55.3675L55.1668 54.661L55.3947 54.4513L56.5388 57.3458L56.32 57.5463L53.5349 56.1698L53.7629 55.9601H53.7583ZM55.5633 55.641L54.7018 56.4341L56.1878 57.1817L55.5633 55.641ZM50.1072 58.7132C50.2701 58.5968 50.4551 58.515 50.6508 58.4728C50.8465 58.4306 51.0488 58.4288 51.2452 58.4677C51.4416 58.5066 51.628 58.5852 51.7928 58.6987C51.9577 58.8123 52.0976 58.9584 52.204 59.128C52.4319 59.4835 52.5048 59.8573 52.4273 60.2584C52.388 60.4569 52.3082 60.6451 52.193 60.8114C52.0777 60.9777 51.9294 61.1184 51.7573 61.2248C51.5457 61.3657 51.3007 61.4484 51.047 61.4644C50.7933 61.4804 50.5399 61.4292 50.3123 61.3159L50.4491 61.0515C50.6177 61.1518 50.8137 61.1928 51.0188 61.1837C51.224 61.1701 51.42 61.1062 51.6023 60.9877C51.7408 60.9031 51.8605 60.7911 51.954 60.6585C52.0476 60.5259 52.113 60.3755 52.1463 60.2167C52.1796 60.0579 52.1801 59.8939 52.1477 59.7349C52.1153 59.5759 52.0506 59.4252 51.9578 59.2921C51.8716 59.1552 51.7585 59.0373 51.6254 58.9454C51.4923 58.8536 51.3418 58.7897 51.1833 58.7578C51.0247 58.7258 50.8613 58.7264 50.703 58.7595C50.5446 58.7925 50.3947 58.8574 50.2622 58.9502C50.0799 59.0687 49.9431 59.2237 49.852 59.4061C49.7608 59.5929 49.7243 59.7844 49.7426 59.9849L49.4508 60.0032C49.4372 59.7494 49.4906 59.4966 49.6059 59.2701C49.7211 59.0436 49.894 58.8515 50.1072 58.7132ZM46.9074 63.8183L46.7889 63.5677L47.5911 63.1848L46.4607 60.8145L46.7251 60.6869L47.8555 63.0571L48.6577 62.6742L48.7762 62.9249L46.9074 63.8183ZM38.1193 64.5203L38.1466 64.7847L36.6607 64.9533L36.6333 64.6935L38.1147 64.5203H38.1193Z" fill="black" stroke="black" stroke-width="0.2"/>
</svg>
