<svg width="120" height="120" viewBox="0 0 120 120" fill="none" xmlns="http://www.w3.org/2000/svg">
<path d="M47.897 114.79L51.4843 108.261L52.5238 108.409L54.1439 115.68L53.1836 115.544L51.8636 109.285L48.8474 114.925L47.897 114.79Z" fill="black"/>
<path d="M44.9419 113.115L45.5886 110.877L43.1484 110.172L43.3566 109.451L45.7968 110.156L46.463 107.851L43.7346 107.062L43.9428 106.342L47.5454 107.383L45.6079 114.088L42.0053 113.047L42.2135 112.327L44.9419 113.115Z" fill="black"/>
<path d="M38.0165 103.819L38.3671 107.098L39.371 107.548L40.5356 104.947L41.3662 105.318L38.5181 111.68L36.4645 110.761C35.9838 110.545 35.6159 110.282 35.3609 109.971C35.0998 109.657 34.9498 109.323 34.9108 108.969C34.8718 108.616 34.9327 108.26 35.0934 107.901C35.2896 107.463 35.5903 107.133 35.9957 106.913C36.395 106.69 36.8717 106.637 37.4258 106.754L37.0217 103.373L38.0165 103.819ZM39.0727 108.214L37.8497 107.667C37.3994 107.465 37.0127 107.423 36.6895 107.542C36.3636 107.666 36.1175 107.914 35.9514 108.285C35.7825 108.662 35.7643 109.005 35.8968 109.312C36.0232 109.617 36.3146 109.872 36.771 110.076L37.994 110.624L39.0727 108.214Z" fill="black"/>
<path d="M21.1959 100.522L25.5256 95.1241L26.2355 95.6935L23.007 99.7187L28.0297 97.1326L28.5289 97.533L27.0961 103.011L30.3309 98.9783L31.0408 99.5477L26.711 104.946L25.9466 104.333L27.5285 98.2689L21.9526 101.129L21.1959 100.522Z" fill="black"/>
<path d="M19.0207 98.0839L24.0671 93.2761L24.6948 93.935L19.6484 98.7428L19.0207 98.0839Z" fill="black"/>
<path d="M12.2004 85.1407C12.6953 84.8382 13.212 84.7568 13.7505 84.8965C14.2799 85.0339 14.7567 85.4496 15.1808 86.1435L15.8797 87.2869L18.3626 85.7692L18.8372 86.5457L12.8901 90.1807L11.7167 88.2609C11.3064 87.5897 11.1574 86.9815 11.2695 86.4364C11.3782 85.8855 11.6885 85.4536 12.2004 85.1407ZM14.5409 86.5347C14.2767 86.1024 13.9881 85.8412 13.6752 85.7512C13.3623 85.6611 13.0324 85.7221 12.6854 85.9342C11.9516 86.3827 11.842 87.0279 12.3566 87.8698L13.0555 89.0131L15.2397 87.678L14.5409 86.5347Z" fill="black"/>
<path d="M14.4984 77.9409C14.7519 78.5358 14.8453 79.1373 14.7784 79.7456C14.7054 80.3564 14.4819 80.9119 14.108 81.4118C13.7254 81.9083 13.2212 82.2898 12.5957 82.5564C11.9701 82.823 11.3489 82.9211 10.7319 82.8507C10.1061 82.7768 9.5507 82.5534 9.06561 82.1804C8.57439 81.81 8.20201 81.3273 7.94846 80.7324C7.69231 80.1314 7.60073 79.5255 7.67374 78.9146C7.74061 78.3064 7.96231 77.7553 8.33883 77.2615C8.71536 76.7676 9.21947 76.3861 9.85115 76.1169C10.4828 75.8477 11.1072 75.7482 11.7242 75.8186C12.3412 75.889 12.8953 76.1094 13.3865 76.4798C13.8716 76.8528 14.2422 77.3398 14.4984 77.9409ZM13.7716 78.2506C13.5808 77.8029 13.3054 77.4456 12.9452 77.1788C12.5825 76.9058 12.1648 76.7505 11.6922 76.7128C11.217 76.6689 10.7248 76.7555 10.2158 76.9724C9.70062 77.192 9.29736 77.4871 9.00599 77.8576C8.70588 78.2247 8.52736 78.6305 8.47045 79.0751C8.41353 79.5197 8.48179 79.9689 8.67521 80.4227C8.86863 80.8765 9.14541 81.2369 9.50553 81.5037C9.86565 81.7705 10.2833 81.9259 10.7586 81.9697C11.2251 82.0101 11.7159 81.9204 12.2311 81.7009C12.7401 81.4839 13.1447 81.1919 13.4448 80.8249C13.7423 80.4517 13.9195 80.0428 13.9764 79.5982C14.0307 79.1475 13.9624 78.6983 13.7716 78.2506Z" fill="black"/>
<path d="M12.0347 70.0611L9.68649 72.3771L9.95977 73.4426L12.7204 72.7346L12.9465 73.6161L6.19502 75.3477L5.63604 73.1682C5.5052 72.6581 5.48223 72.2063 5.56715 71.8128C5.65042 71.4129 5.81821 71.0877 6.07055 70.8372C6.32288 70.5866 6.63955 70.4125 7.02055 70.3148C7.4855 70.1955 7.93034 70.226 8.35508 70.4061C8.77815 70.5798 9.11655 70.9197 9.37025 71.4259L11.7639 69.0053L12.0347 70.0611ZM9.25266 73.624L8.91976 72.326C8.79719 71.8481 8.58903 71.5196 8.29528 71.3402C7.99506 71.1626 7.648 71.1243 7.25408 71.2253C6.85371 71.328 6.57438 71.527 6.4161 71.8222C6.25617 72.111 6.23831 72.4976 6.36252 72.9819L6.69543 74.2799L9.25266 73.624Z" fill="black"/>
<path d="M4.06963 63.123L4.80505 63.0407L5.01625 64.929L11.2076 64.2364L11.3088 65.1408L5.1174 65.8333L5.32972 67.7315L4.59431 67.8137L4.06963 63.123Z" fill="black"/>
<path d="M9.58452 55.9456L9.49854 58.9844L11.0321 59.588L11.0049 60.5476L4.14898 57.8327L4.17867 56.7831L11.1769 54.4701L11.1497 55.4297L9.58452 55.9456ZM8.83746 56.1846L5.28324 57.3445L8.76619 58.7036L8.83746 56.1846Z" fill="black"/>
<path d="M5.32073 47.9167L6.05032 48.0404L5.54378 51.0278L7.86071 51.4206L8.27196 48.9953L9.00155 49.119L8.5903 51.5443L11.6861 52.0693L11.534 52.9665L4.66207 51.8013L5.32073 47.9167Z" fill="black"/>
<path d="M13.9124 43.633C13.7129 44.2481 13.3881 44.763 12.9382 45.1777C12.4819 45.5904 11.9486 45.8624 11.3382 45.9938C10.7236 46.1168 10.0929 46.0734 9.44609 45.8636C8.79928 45.6537 8.26637 45.3197 7.84735 44.8613C7.42406 44.3946 7.15202 43.8613 7.03125 43.2614C6.90413 42.6594 6.94035 42.0509 7.1399 41.4358C7.34152 40.8144 7.67046 40.2973 8.12675 39.8846C8.57669 39.4699 9.1058 39.2 9.71408 39.075C10.3224 38.9499 10.9531 38.9933 11.6062 39.2052C12.2594 39.4171 12.7955 39.7522 13.2145 40.2106C13.6335 40.6689 13.9065 41.1991 14.0337 41.801C14.1544 42.4009 14.114 43.0115 13.9124 43.633ZM13.161 43.3892C13.3111 42.9263 13.3381 42.476 13.2418 42.0382C13.1476 41.5941 12.9347 41.2026 12.6031 40.8638C12.2735 40.5186 11.8456 40.2606 11.3192 40.0898C10.7866 39.917 10.2887 39.8746 9.82557 39.9627C9.35818 40.0423 8.95702 40.2311 8.62209 40.5289C8.28717 40.8268 8.04359 41.2103 7.89135 41.6796C7.73911 42.1489 7.71113 42.6024 7.80741 43.0401C7.9037 43.4778 8.11661 43.8693 8.44617 44.2145C8.77144 44.5513 9.20041 44.8062 9.73308 44.979C10.2594 45.1497 10.7563 45.1953 11.2237 45.1156C11.6931 45.0296 12.0953 44.8377 12.4302 44.5399C12.7672 44.2357 13.0108 43.8521 13.161 43.3892Z" fill="black"/>
<path d="M15.3517 38.1703L16.4205 35.9768L17.0857 36.3009L15.6184 39.3125L9.35257 36.2595L9.75116 35.4414L15.3517 38.1703Z" fill="black"/>
<path d="M13.0754 29.5551L18.9707 33.2734L18.4853 34.0431L12.5899 30.3248L13.0754 29.5551Z" fill="black"/>
<path d="M23.1617 27.8266C22.7499 28.3252 22.2586 28.6847 21.6877 28.9049C21.1116 29.1209 20.5156 29.1778 19.8998 29.0756C19.283 28.964 18.7124 28.6917 18.188 28.2587C17.6637 27.8258 17.2909 27.3191 17.0698 26.7389C16.8478 26.1492 16.7909 25.5532 16.8991 24.9509C17.0023 24.3444 17.2597 23.7918 17.6714 23.2932C18.0874 22.7894 18.5834 22.4295 19.1595 22.2135C19.7304 21.9933 20.3217 21.9368 20.9333 22.0442C21.545 22.1516 22.1155 22.4238 22.645 22.861C23.1745 23.2983 23.5498 23.807 23.771 24.3873C23.9921 24.9676 24.0511 25.561 23.948 26.1675C23.8398 26.7698 23.5776 27.3228 23.1617 27.8266ZM22.5525 27.3236C22.8624 26.9483 23.053 26.5394 23.1244 26.097C23.2001 25.6493 23.146 25.207 22.9622 24.7699C22.7827 24.3277 22.4796 23.9305 22.0529 23.5782C21.6211 23.2216 21.1736 22.9991 20.7106 22.9107C20.2467 22.813 19.8042 22.841 19.3832 22.9948C18.9622 23.1487 18.5947 23.4158 18.2806 23.7962C17.9665 24.1766 17.7737 24.5881 17.7023 25.0305C17.6309 25.473 17.685 25.9154 17.8645 26.3576C18.0431 26.7904 18.3484 27.1851 18.7802 27.5416C19.2069 27.8939 19.6522 28.119 20.1161 28.2168C20.5843 28.3094 21.0289 28.2788 21.4498 28.125C21.8751 27.966 22.2426 27.6989 22.5525 27.3236Z" fill="black"/>
<path d="M26.6313 24.2499C26.5048 24.3685 26.3568 24.425 26.1872 24.4195C26.0175 24.414 25.8735 24.348 25.7549 24.2216C25.6364 24.0951 25.5799 23.9471 25.5854 23.7774C25.5909 23.6078 25.6568 23.4637 25.7833 23.3452C25.9049 23.2312 26.0481 23.1793 26.2128 23.1893C26.3825 23.1948 26.5265 23.2608 26.6451 23.3873C26.7636 23.5137 26.8201 23.6618 26.8146 23.8314C26.814 23.9964 26.7529 24.136 26.6313 24.2499Z" fill="black"/>
<path d="M30.9634 12.1888L34.6581 18.0989L33.8865 18.5813L30.1918 12.6711L30.9634 12.1888Z" fill="black"/>
<path d="M42.8784 13.9768L42.0517 14.3571L36.4071 10.8448L38.7267 15.8868L37.9 16.2671L34.9828 9.92596L35.8095 9.54564L41.4499 13.0489L39.1345 8.01599L39.9612 7.63566L42.8784 13.9768Z" fill="black"/>
<path d="M48.8006 7.14187C48.5047 6.80247 48.1505 6.57634 47.7381 6.46346C47.3239 6.34417 46.8824 6.35019 46.4138 6.48154C45.9452 6.61289 45.5521 6.84076 45.2346 7.16518C44.9216 7.48137 44.7127 7.87226 44.6078 8.33785C44.5075 8.79522 44.5312 9.2871 44.6787 9.81348C44.8262 10.3399 45.0617 10.7724 45.3851 11.111C45.7149 11.4478 46.0966 11.6732 46.53 11.7871C46.9682 11.8927 47.4215 11.8799 47.8901 11.7486C48.5449 11.565 49.0292 11.2181 49.3431 10.7078C49.6571 10.1974 49.7558 9.59858 49.6393 8.91119L46.9624 9.66148L46.7627 8.94894L50.3735 7.93685L50.5625 8.61088C50.6658 9.17733 50.6347 9.73303 50.4689 10.278C50.3014 10.8165 50.0147 11.2881 49.6088 11.6926C49.2011 12.0908 48.702 12.3726 48.1114 12.5381C47.4888 12.7127 46.8802 12.7275 46.2857 12.5825C45.6894 12.4312 45.1675 12.1378 44.72 11.7024C44.279 11.2652 43.9667 10.7192 43.7832 10.0645C43.5997 9.40971 43.5827 8.78096 43.7322 8.17824C43.8864 7.56729 44.1798 7.04541 44.6123 6.6126C45.0431 6.17338 45.5698 5.8665 46.1925 5.69197C46.9051 5.49225 47.5836 5.49245 48.2282 5.69257C48.8792 5.8909 49.4199 6.27593 49.8502 6.84769L48.8006 7.14187Z" fill="black"/>
<path d="M56.2466 11.1232L54.2536 8.49532L53.1617 8.6286L53.507 11.4576L52.6037 11.5679L51.7592 4.64921L53.9926 4.3766C54.5154 4.31279 54.9664 4.34841 55.3455 4.48347C55.7313 4.61772 56.0321 4.82614 56.2479 5.10874C56.4638 5.39134 56.5955 5.72786 56.6432 6.11829C56.7013 6.59476 56.6136 7.03193 56.3801 7.42982C56.1532 7.8269 55.7724 8.11852 55.2377 8.30468L57.3286 10.9911L56.2466 11.1232ZM53.0732 7.90398L54.4033 7.74162C54.893 7.68185 55.2458 7.51791 55.4615 7.24979C55.6765 6.97505 55.7594 6.63585 55.7101 6.23218C55.66 5.82189 55.4988 5.51919 55.2265 5.32408C54.9608 5.12816 54.5798 5.06049 54.0835 5.12107L52.7534 5.28343L53.0732 7.90398Z" fill="black"/>
<path d="M60.7659 4.79981L60.7235 7.12943L63.2631 7.1757L63.2494 7.92558L60.7098 7.8793L60.6661 10.2789L63.5056 10.3306L63.492 11.0805L59.7426 11.0122L59.8697 4.03336L63.6191 4.10168L63.6054 4.85155L60.7659 4.79981Z" fill="black"/>
<path d="M68.4446 11.8133C67.9899 11.7437 67.5934 11.6021 67.2552 11.3885C66.9245 11.1693 66.6787 10.9024 66.5178 10.5878C66.3579 10.2666 66.3033 9.91763 66.3542 9.54099L67.3131 9.68769C67.2966 10.0156 67.3866 10.3093 67.5829 10.5686C67.7869 10.8224 68.1129 10.9836 68.5611 11.0521C68.9894 11.1177 69.3416 11.0637 69.6177 10.8901C69.9014 10.7109 70.069 10.4533 70.1204 10.1172C70.1607 9.85362 70.121 9.62835 70.0012 9.44142C69.8814 9.25449 69.7194 9.10155 69.515 8.98261C69.3107 8.86367 69.0315 8.72654 68.6776 8.57123C68.241 8.38304 67.8934 8.20846 67.6348 8.04749C67.3828 7.88753 67.1771 7.66722 67.0177 7.38655C66.8659 7.1003 66.8228 6.74301 66.8883 6.31466C66.9458 5.93903 67.0922 5.62085 67.3277 5.36013C67.5632 5.09941 67.8644 4.91619 68.2312 4.81046C68.6047 4.70574 69.0155 4.68766 69.4636 4.75622C70.1094 4.85503 70.6119 5.09714 70.9711 5.48257C71.3369 5.869 71.5053 6.33314 71.4763 6.87499L70.4878 6.72375C70.4952 6.45511 70.3921 6.20329 70.1785 5.96828C69.966 5.72669 69.6587 5.57514 69.2567 5.51364C68.8811 5.45616 68.5595 5.50813 68.292 5.66953C68.0255 5.82434 67.8656 6.07638 67.8121 6.42565C67.7738 6.67607 67.8118 6.89095 67.926 7.07028C68.0467 7.25062 68.2027 7.39926 68.3939 7.51618C68.5927 7.62753 68.8718 7.76465 69.2313 7.92757C69.6669 8.12235 70.0135 8.30351 70.2711 8.47107C70.5297 8.63204 70.7382 8.85615 70.8966 9.14341C71.056 9.42407 71.1024 9.78188 71.0359 10.2168C70.9844 10.5529 70.8471 10.8556 70.6238 11.1249C70.4005 11.3943 70.1001 11.5945 69.7226 11.7255C69.3451 11.8566 68.9191 11.8859 68.4446 11.8133Z" fill="black"/>
<path d="M77.0574 12.3619L74.1456 11.4883L73.1638 12.812L72.2443 12.5361L76.6496 6.62263L77.6553 6.92439L78.0678 14.2834L77.1483 14.0075L77.0574 12.3619ZM77.021 11.5784L76.8258 7.84483L74.6073 10.8542L77.021 11.5784Z" fill="black"/>
<path d="M82.7317 16.5562L82.4347 13.2714L81.4382 12.8056L80.2313 15.3875L79.407 15.0021L82.3584 8.68785L84.3967 9.64061C84.8738 9.86362 85.2373 10.1329 85.4872 10.4484C85.7432 10.7667 85.8878 11.1029 85.921 11.4569C85.9542 11.811 85.8875 12.1662 85.721 12.5225C85.5177 12.9573 85.2116 13.2816 84.8027 13.4952C84.3998 13.7116 83.9223 13.757 83.3702 13.6314L83.7191 17.0177L82.7317 16.5562ZM81.7473 12.1443L82.9612 12.7117C83.4081 12.9206 83.7941 12.9685 84.1192 12.8556C84.4471 12.7366 84.6972 12.4929 84.8694 12.1244C85.0444 11.75 85.0682 11.4079 84.9407 11.0981C84.8193 10.7911 84.5321 10.5318 84.0791 10.32L82.8652 9.75263L81.7473 12.1443Z" fill="black"/>
<path d="M86.0265 18.57C85.8795 18.4781 85.787 18.3495 85.7488 18.1842C85.7107 18.0188 85.7376 17.8626 85.8295 17.7156C85.9213 17.5687 86.05 17.4761 86.2153 17.438C86.3807 17.3998 86.5369 17.4267 86.6838 17.5186C86.8252 17.6069 86.9121 17.732 86.9446 17.8938C86.9827 18.0592 86.9558 18.2154 86.8639 18.3623C86.7721 18.5093 86.6434 18.6019 86.4781 18.64C86.3184 18.6817 86.1678 18.6584 86.0265 18.57Z" fill="black"/>
<path d="M102.302 23.1176L95.5387 26.2411L94.7903 25.5047L97.8043 18.6919L98.4957 19.3722L95.8414 25.1921L101.618 22.4443L102.302 23.1176Z" fill="black"/>
<path d="M103.685 26.219L101.835 27.6362L103.38 29.6524L102.785 30.1085L101.24 28.0923L99.3347 29.552L101.062 31.8063L100.467 32.2625L98.1859 29.2858L103.727 25.0406L106.007 28.0172L105.412 28.4734L103.685 26.219Z" fill="black"/>
<path d="M103.737 37.8116L105.402 34.9646L104.861 34.0068L102.379 35.4084L101.932 34.616L108.001 31.1884L109.107 33.1475C109.366 33.6061 109.506 34.0364 109.526 34.4384C109.55 34.8462 109.472 35.2038 109.294 35.5114C109.115 35.8189 108.855 36.0694 108.512 36.2628C108.094 36.4989 107.657 36.5852 107.2 36.5217C106.746 36.464 106.331 36.2237 105.954 35.8009L104.273 38.7607L103.737 37.8116ZM105.496 33.6479L106.155 34.8146C106.398 35.2442 106.684 35.5073 107.015 35.6041C107.351 35.6976 107.696 35.6443 108.05 35.4443C108.41 35.2411 108.628 34.9763 108.704 34.6501C108.783 34.3296 108.7 33.9517 108.454 33.5164L107.795 32.3496L105.496 33.6479Z" fill="black"/>
<path d="M115.315 50.4497L108.626 52.2224L108.393 51.3428L113.381 50.021L107.804 49.1195L107.64 48.5009L112.046 44.9436L107.048 46.268L106.815 45.3883L113.504 43.6156L113.755 44.5629L108.882 48.5028L115.067 49.5121L115.315 50.4497Z" fill="black"/>
<path d="M115.616 53.7082L108.701 54.5803L108.587 53.6774L115.502 52.8053L115.616 53.7082Z" fill="black"/>
<path d="M113.419 68.1734C112.841 68.1229 112.377 67.8817 112.026 67.4495C111.682 67.0246 111.545 66.4071 111.616 65.5968L111.733 64.2619L108.834 64.0088L108.913 63.1022L115.856 63.7085L115.661 65.95C115.592 66.7337 115.351 67.3115 114.937 67.6836C114.522 68.0623 114.016 68.2256 113.419 68.1734ZM112.363 65.6621C112.319 66.1668 112.396 66.5483 112.594 66.8065C112.793 67.0647 113.094 67.2115 113.5 67.2469C114.356 67.3217 114.828 66.8677 114.913 65.8847L115.03 64.5498L112.48 64.3271L112.363 65.6621Z" fill="black"/>
<path d="M107.296 72.5967C107.445 71.9675 107.727 71.428 108.142 70.9783C108.564 70.5301 109.073 70.2159 109.671 70.0356C110.274 69.8634 110.906 69.8557 111.568 70.0126C112.229 70.1695 112.787 70.4595 113.242 70.8825C113.702 71.3135 114.016 71.8231 114.185 72.4113C114.36 73.001 114.373 73.6104 114.224 74.2396C114.073 74.8753 113.787 75.4173 113.366 75.8655C112.951 76.3152 112.445 76.6269 111.849 76.8007C111.253 76.9745 110.621 76.9822 109.952 76.8237C109.284 76.6653 108.723 76.3745 108.268 75.9515C107.814 75.5286 107.499 75.0222 107.323 74.4325C107.154 73.8443 107.145 73.2324 107.296 72.5967ZM108.065 72.779C107.953 73.2525 107.962 73.7036 108.093 74.1321C108.223 74.5671 108.467 74.9401 108.825 75.2511C109.181 75.5686 109.629 75.7911 110.167 75.9188C110.712 76.048 111.212 76.0501 111.666 75.9249C112.126 75.8077 112.51 75.5872 112.82 75.2633C113.13 74.9393 113.341 74.5374 113.455 74.0573C113.569 73.5773 113.56 73.123 113.429 72.6945C113.298 72.266 113.054 71.893 112.698 71.5755C112.346 71.2661 111.898 71.0467 111.353 70.9175C110.815 70.7898 110.316 70.7846 109.856 70.9017C109.395 71.0254 109.01 71.2491 108.7 71.5731C108.389 71.9035 108.177 72.3055 108.065 72.779Z" fill="black"/>
<path d="M104.6 80.4028L107.865 79.9336L108.278 78.914L105.636 77.8445L105.977 77.001L112.438 79.6165L111.594 81.7021C111.396 82.1903 111.146 82.5674 110.844 82.8336C110.54 83.1059 110.212 83.2679 109.86 83.3197C109.508 83.3715 109.15 83.3236 108.785 83.176C108.341 82.9958 108.001 82.7072 107.766 82.3101C107.529 81.9191 107.458 81.4447 107.555 80.8868L104.191 81.4131L104.6 80.4028ZM108.954 79.1879L108.451 80.43C108.266 80.8873 108.239 81.2752 108.369 81.5939C108.505 81.9151 108.761 82.1521 109.138 82.3047C109.521 82.4598 109.864 82.4655 110.167 82.3219C110.467 82.1845 110.711 81.8841 110.899 81.4206L111.401 80.1786L108.954 79.1879Z" fill="black"/>
<path d="M106.887 90.7132L106.247 90.3427L107.198 88.698L101.805 85.5789L102.26 84.7912L107.653 87.9102L108.61 86.2568L109.25 86.6273L106.887 90.7132Z" fill="black"/>
<path d="M98.1904 93.2145L100.064 90.8205L99.1884 89.4242L99.78 88.6682L103.684 94.9236L103.037 95.7505L96.033 93.4563L96.6246 92.7003L98.1904 93.2145ZM98.9334 93.4658L102.482 94.6429L100.486 91.4813L98.9334 93.4658Z" fill="black"/>
<path d="M96.854 102.208L96.3404 101.675L98.5218 99.5718L96.8908 97.88L95.1197 99.5873L94.6061 99.0546L96.3772 97.3472L94.1978 95.0866L94.853 94.4551L99.6905 99.473L96.854 102.208Z" fill="black"/>
<path d="M87.3954 100.556C87.9212 100.18 88.4882 99.9584 89.0965 99.8919C89.7087 99.8308 90.2993 99.9285 90.8684 100.185C91.436 100.451 91.9177 100.861 92.3136 101.414C92.7094 101.966 92.9399 102.552 93.0049 103.169C93.0683 103.796 92.9706 104.387 92.7115 104.941C92.4564 105.501 92.066 105.969 91.5402 106.346C91.0089 106.726 90.4372 106.947 89.8251 107.008C89.2168 107.074 88.6308 106.977 88.0671 106.717C87.5034 106.456 87.0217 106.047 86.6219 105.488C86.2222 104.93 85.9898 104.342 85.9248 103.725C85.8598 103.107 85.9549 102.518 86.21 101.958C86.469 101.404 86.8641 100.937 87.3954 100.556ZM87.8552 101.199C87.4595 101.482 87.1705 101.828 86.988 102.238C86.8002 102.651 86.739 103.092 86.8046 103.562C86.8648 104.035 87.056 104.497 87.3781 104.947C87.7041 105.402 88.0796 105.732 88.5045 105.936C88.9278 106.15 89.3627 106.236 89.8091 106.195C90.2554 106.154 90.6791 105.99 91.0803 105.703C91.4814 105.416 91.7732 105.068 91.9556 104.658C92.1381 104.249 92.1992 103.808 92.139 103.334C92.0773 102.87 91.8834 102.41 91.5574 101.955C91.2353 101.505 90.8625 101.173 90.4392 100.96C90.0104 100.75 89.5728 100.666 89.1265 100.707C88.6747 100.751 88.251 100.915 87.8552 101.199Z" fill="black"/>
<path d="M82.9937 104.096L80.8313 105.226L80.4885 104.57L83.4573 103.018L86.6863 109.195L85.8798 109.617L82.9937 104.096Z" fill="black"/>
<path d="M79.711 112.376L77.1752 105.884L78.0229 105.553L80.5587 112.045L79.711 112.376Z" fill="black"/>
<path d="M70.5678 107.78C71.1951 107.623 71.8039 107.626 72.394 107.788C72.9858 107.956 73.4991 108.264 73.934 108.712C74.364 109.168 74.6615 109.726 74.8263 110.386C74.9911 111.045 74.9902 111.674 74.8236 112.273C74.6521 112.879 74.344 113.392 73.8993 113.812C73.4562 114.239 72.921 114.531 72.2936 114.688C71.6597 114.846 71.0469 114.841 70.4552 114.673C69.865 114.511 69.3557 114.206 68.9273 113.756C68.4989 113.306 68.2015 112.749 68.035 112.082C67.8686 111.416 67.8687 110.784 68.0353 110.186C68.202 109.587 68.5068 109.075 68.9499 108.648C69.3946 108.228 69.9339 107.938 70.5678 107.78ZM70.7592 108.547C70.2871 108.665 69.8909 108.88 69.5707 109.194C69.2441 109.509 69.0249 109.897 68.9133 110.358C68.7952 110.82 68.8032 111.32 68.9373 111.857C69.0731 112.4 69.301 112.845 69.6211 113.191C69.9363 113.545 70.309 113.785 70.7391 113.911C71.1691 114.038 71.6235 114.041 72.1021 113.921C72.5807 113.802 72.9801 113.585 73.3003 113.272C73.6205 112.958 73.8397 112.57 73.9578 112.107C74.071 111.653 74.0598 111.154 73.924 110.611C73.7899 110.074 73.5652 109.629 73.25 109.275C72.9283 108.922 72.5524 108.683 72.1223 108.556C71.6857 108.432 71.2314 108.429 70.7592 108.547Z" fill="black"/>
<path d="M65.6534 108.599C65.8255 108.579 65.9782 108.621 66.1114 108.726C66.2447 108.831 66.3214 108.97 66.3417 109.142C66.362 109.314 66.3196 109.467 66.2144 109.6C66.1093 109.733 65.9707 109.81 65.7985 109.831C65.633 109.85 65.4869 109.807 65.3603 109.701C65.2271 109.596 65.1504 109.457 65.1301 109.285C65.1098 109.113 65.1522 108.96 65.2573 108.827C65.3559 108.695 65.4879 108.619 65.6534 108.599Z" fill="black"/>
</svg>
