<svg width="94" height="145" viewBox="0 0 94 145" fill="none" xmlns="http://www.w3.org/2000/svg">
<path d="M55.063 93.3806L66.6414 103.404L66.9687 103.687L67.3967 103.752L82.5354 106.064L72.5124 117.642L72.229 117.969L72.1636 118.397L69.8525 133.536L58.2741 123.513L57.9468 123.23L57.5187 123.164L42.3801 120.853L52.4031 109.275L52.6865 108.947L52.7518 108.519L55.063 93.3806Z" fill="#F69833" stroke="black" stroke-width="3"/>
<path d="M16.8908 6.24481L23.0672 21.9845L28.0071 5.81404L23.7523 22.1781L37.2535 11.9995L24.1928 22.7375L41.0983 22.4386L24.2204 23.4489L38.0729 33.1439L23.8245 24.0407L29.3328 40.0264L23.1564 24.2867L18.2166 40.4572L22.4713 24.0931L8.97011 34.2717L22.0308 23.5337L5.12531 23.8326L22.0032 22.8223L8.15074 13.1273L22.3991 22.2305L16.8908 6.24481Z" fill="#3596F5"/>
</svg>
