<svg width="182" height="232" viewBox="0 0 182 232" fill="none" xmlns="http://www.w3.org/2000/svg">
<path d="M143.063 180.38L154.641 190.403L154.969 190.686L155.397 190.751L170.535 193.063L160.512 204.641L160.229 204.968L160.164 205.396L157.852 220.535L146.274 210.512L145.947 210.229L145.519 210.163L130.38 207.852L140.403 196.274L140.686 195.946L140.752 195.518L143.063 180.38Z" fill="#F69833" stroke="black" stroke-width="3"/>
<path d="M30.1624 13.6264L45.3577 26.7804L45.6851 27.0638L46.1131 27.1291L65.9808 30.1622L52.8267 45.3575L52.5434 45.6849L52.478 46.1129L49.4449 65.9806L34.2496 52.8265L33.9223 52.5432L33.4943 52.4778L13.6266 49.4447L26.7806 34.2494L27.064 33.9221L27.1293 33.4941L30.1624 13.6264Z" fill="#F24E1E" stroke="black" stroke-width="3"/>
<path d="M110.497 32.2325L121.649 60.6513L130.568 31.4547L122.886 61.0009L147.263 42.6229L123.681 62.0109L154.205 61.4713L123.731 63.2954L148.743 80.8003L123.016 64.3639L132.962 93.227L121.81 64.8082L112.891 94.0048L120.573 64.4586L96.196 82.8365L119.778 63.4486L89.254 63.9882L119.728 62.1641L94.7166 44.6591L120.443 61.0956L110.497 32.2325Z" fill="#3596F5"/>
</svg>
