<svg width="94" height="145" viewBox="0 0 94 145" fill="none" xmlns="http://www.w3.org/2000/svg">
<path d="M53.9903 90.4671L67.6231 102.269L85.448 104.99L73.6465 118.623L70.9252 136.448L57.2924 124.646L39.4675 121.925L51.269 108.292L53.9903 90.4671Z" fill="#F69833"/>
<path d="M16.8908 6.24383L23.0672 21.9835L28.0071 5.81307L23.7523 22.1771L37.2535 11.9985L24.1928 22.7365L41.0983 22.4376L24.2204 23.4479L38.0729 33.1429L23.8245 24.0397L29.3328 40.0254L23.1564 24.2858L18.2166 40.4562L22.4713 24.0921L8.97011 34.2707L22.0308 23.5328L5.12531 23.8316L22.0032 22.8213L8.15074 13.1263L22.3991 22.2296L16.8908 6.24383Z" fill="#3596F5"/>
</svg>
