<svg width="182" height="232" viewBox="0 0 182 232" fill="none" xmlns="http://www.w3.org/2000/svg">
<path d="M141.99 177.467L155.623 189.269L173.448 191.99L161.646 205.623L158.925 223.448L145.292 211.646L127.467 208.925L139.269 195.292L141.99 177.467Z" fill="#F69833"/>
<path d="M29.0897 10.7138L46.3395 25.6463L68.8934 29.0895L53.9608 46.3393L50.5176 68.8932L33.2679 53.9606L10.714 50.5174L25.6465 33.2677L29.0897 10.7138Z" fill="#F24E1E"/>
<path d="M110.497 32.2325L121.649 60.6513L130.568 31.4547L122.886 61.0009L147.263 42.6229L123.681 62.0109L154.205 61.4713L123.731 63.2954L148.743 80.8003L123.016 64.3639L132.962 93.227L121.81 64.8082L112.891 94.0048L120.573 64.4586L96.196 82.8365L119.778 63.4486L89.254 63.9882L119.728 62.1641L94.7166 44.6591L120.443 61.0956L110.497 32.2325Z" fill="#3596F5"/>
</svg>
