<svg width="341" height="208" viewBox="0 0 341 208" fill="none" xmlns="http://www.w3.org/2000/svg">
<rect x="105.5" y="17" width="122" height="139" stroke="#5B40FF"/>
<circle cx="166.5" cy="57" r="25" stroke="black" stroke-width="9"/>
<circle cx="166.5" cy="57" r="25" stroke="white"/>
<circle cx="166.5" cy="32" r="2" fill="#5B40FF"/>
<circle cx="141.5" cy="57" r="2" fill="#5B40FF"/>
<circle cx="191.5" cy="57" r="2" fill="#5B40FF"/>
<circle cx="227.5" cy="17" r="2.5" fill="white" stroke="#5B40FF"/>
<path d="M108 17C108 18.3807 106.881 19.5 105.5 19.5C104.119 19.5 103 18.3807 103 17C103 15.6193 104.119 14.5 105.5 14.5C106.881 14.5 108 15.6193 108 17Z" fill="white" stroke="#5B40FF"/>
<circle cx="105.5" cy="156" r="2.5" fill="white" stroke="#5B40FF"/>
<circle cx="227.5" cy="156" r="2.5" fill="white" stroke="#5B40FF"/>
<circle cx="166.5" cy="82" r="2" fill="#5B40FF"/>
<path d="M222.203 154.79L237.378 181.613L238.249 181.121L223.073 154.298L248.776 171.285C249.24 171.591 249.497 172.129 249.442 172.683L247.808 189.281L239.449 194.009L224.38 186.862C223.878 186.624 223.549 186.127 223.525 185.571L222.203 154.79ZM248.091 190.269L251.391 196.102C251.799 196.823 251.545 197.738 250.824 198.146L245.495 201.161C244.774 201.569 243.859 201.315 243.451 200.594L240.151 194.761L248.091 190.269Z" fill="white" stroke="black"/>
<circle cx="236.603" cy="179.43" r="2.53061" fill="black"/>
<path d="M166.5 92C141.095 92 120.5 112.595 120.5 138H212.5C212.5 112.595 191.905 92 166.5 92Z" stroke="black" stroke-width="9"/>
<path d="M166.5 92C141.095 92 120.5 112.595 120.5 138H212.5C212.5 112.595 191.905 92 166.5 92Z" stroke="white"/>
<circle cx="212.5" cy="138" r="2" fill="#5B40FF"/>
<mask id="path-17-outside-1_751_1157" maskUnits="userSpaceOnUse" x="209.702" y="87.5" width="16" height="54" fill="black">
<rect fill="white" x="209.702" y="87.5" width="16" height="54"/>
<path d="M214.702 138C214.702 139.105 213.806 140 212.702 140C211.597 140 210.702 139.105 210.702 138C210.702 136.895 211.597 136 212.702 136C213.806 136 214.702 136.895 214.702 138Z"/>
</mask>
<path d="M214.702 138C214.702 139.105 213.806 140 212.702 140C211.597 140 210.702 139.105 210.702 138C210.702 136.895 211.597 136 212.702 136C213.806 136 214.702 136.895 214.702 138Z" fill="#5B40FF"/>
<path d="M214.263 140.853L217.555 138.438L215.14 135.147L211.848 137.562L214.263 140.853ZM222.438 87.6467L219.147 90.0616L221.562 93.3533L224.853 90.9384L222.438 87.6467ZM215.196 138.076L222.494 90.5759L221.506 90.4241L214.207 137.924L215.196 138.076ZM213.702 138C213.702 138.552 213.254 139 212.702 139V141C214.359 141 215.702 139.657 215.702 138H213.702ZM212.702 139C212.149 139 211.702 138.552 211.702 138H209.702C209.702 139.657 211.045 141 212.702 141V139ZM211.702 138C211.702 137.448 212.149 137 212.702 137V135C211.045 135 209.702 136.343 209.702 138H211.702ZM212.702 137C213.254 137 213.702 137.448 213.702 138H215.702C215.702 136.343 214.359 135 212.702 135V137Z" fill="#F24E1E" mask="url(#path-17-outside-1_751_1157)"/>
<circle cx="120.5" cy="138" r="2" fill="#5B40FF"/>
<circle cx="166.5" cy="92" r="2" fill="#5B40FF"/>
<rect x="240" y="78.5" width="100" height="19" rx="3.5" fill="white" stroke="black"/>
<rect x="0.5" y="-0.5" width="100" height="56" rx="3.5" transform="matrix(1 0 0 -1 239.5 73)" fill="white" stroke="black"/>
<rect x="292" y="145.5" width="48" height="14" rx="7" fill="black" stroke="black"/>
<rect x="240" y="101.5" width="100" height="11" rx="3.5" fill="white" stroke="black"/>
<rect x="240" y="114.5" width="100" height="11" rx="3.5" fill="white" stroke="black"/>
<rect x="240" y="127.5" width="100" height="11" rx="3.5" fill="white" stroke="black"/>
<rect x="270" y="39.5" width="40" height="40" rx="20" fill="white" stroke="black"/>
<circle cx="290.353" cy="53.3847" r="5.18647" stroke="black" stroke-width="2"/>
<path d="M290.353 60.6396C285.083 60.6396 280.81 64.9122 280.81 70.1828H299.896C299.896 64.9122 295.624 60.6396 290.353 60.6396Z" stroke="black" stroke-width="2"/>
<path d="M56.5923 132.951L56.8162 133.903L57.4567 133.164L73.454 114.718L67.3601 138.362L67.1161 139.309L68.0266 138.952L90.764 130.053L74.3801 148.157L73.7241 148.882L74.6958 148.989L98.9646 151.676L76.0439 160.092L75.1262 160.429L75.9366 160.976L96.1771 174.633L71.9705 171.434L71.0013 171.306L71.4648 172.167L83.04 193.666L63.093 179.583L62.2943 179.02L62.3047 179.997L62.563 204.413L51.4452 182.674L51 181.803L50.5548 182.674L39.437 204.413L39.6953 179.997L39.7057 179.02L38.907 179.583L18.96 193.666L30.5352 172.167L30.9987 171.306L30.0295 171.434L5.82293 174.633L26.0634 160.976L26.8738 160.429L25.9561 160.092L3.03539 151.676L27.3042 148.989L28.2759 148.882L27.6199 148.157L11.236 130.053L33.9734 138.952L34.8839 139.309L34.6399 138.362L28.546 114.718L44.5433 133.164L45.1838 133.903L45.4077 132.951L51 109.183L56.5923 132.951Z" fill="#29FFAD" stroke="black"/>
<path d="M48.636 13.1005L48.3445 30.2237L48.3421 30.368L48.4169 30.4914L57.2952 45.1359L40.1721 44.8445L40.0278 44.842L39.9044 44.9169L25.2598 53.7952L25.5513 36.672L25.5537 36.5277L25.4789 36.4043L16.6006 21.7598L33.7237 22.0512L33.868 22.0537L33.9914 21.9789L48.636 13.1005Z" fill="#F24E1E" stroke="black"/>
<path d="M64.04 53.7899L70.9159 60.1963L71.0215 60.2947L71.1633 60.3216L80.3955 62.0784L73.9892 68.9543L73.8908 69.0599L73.8638 69.2017L72.1071 78.4339L65.2312 72.0276L65.1256 71.9292L64.9838 71.9022L55.7516 70.1455L62.1579 63.2695L62.2563 63.1639L62.2833 63.0222L64.04 53.7899Z" fill="#FDBD39" stroke="black"/>
<path d="M77.9499 24.3609L81.3258 27.5062L81.4314 27.6046L81.5732 27.6316L86.1059 28.4941L82.9606 31.8699L82.8622 31.9755L82.8352 32.1173L81.9727 36.65L78.5969 33.5047L78.4913 33.4063L78.3495 33.3794L73.8168 32.5169L76.9621 29.141L77.0605 29.0354L77.0875 28.8936L77.9499 24.3609Z" fill="#FDBD39" stroke="black"/>
</svg>
