<svg width="341" height="208" viewBox="0 0 341 208" fill="none" xmlns="http://www.w3.org/2000/svg">
<rect x="105.5" y="17" width="122" height="139" stroke="#5B40FF"/>
<circle cx="166.5" cy="57" r="25" stroke="black" stroke-width="9"/>
<circle cx="166.5" cy="57" r="25" stroke="white"/>
<circle cx="166.5" cy="32" r="2" fill="#5B40FF"/>
<circle cx="141.5" cy="57" r="2" fill="#5B40FF"/>
<circle cx="191.5" cy="57" r="2" fill="#5B40FF"/>
<circle cx="227.5" cy="17" r="2.5" fill="white" stroke="#5B40FF"/>
<path d="M108 17C108 18.3807 106.881 19.5 105.5 19.5C104.119 19.5 103 18.3807 103 17C103 15.6193 104.119 14.5 105.5 14.5C106.881 14.5 108 15.6193 108 17Z" fill="white" stroke="#5B40FF"/>
<circle cx="105.5" cy="156" r="2.5" fill="white" stroke="#5B40FF"/>
<circle cx="227.5" cy="156" r="2.5" fill="white" stroke="#5B40FF"/>
<circle cx="166.5" cy="82" r="2" fill="#5B40FF"/>
<path d="M222.791 156.846L236.943 181.86L238.684 180.875L224.532 155.861L248.501 171.702C248.81 171.906 248.981 172.265 248.945 172.634L247.335 188.973L239.429 193.446L224.595 186.41C224.26 186.251 224.04 185.92 224.024 185.55L222.791 156.846ZM247.902 190.951L250.955 196.348C251.227 196.829 251.058 197.439 250.578 197.711L245.249 200.726C244.768 200.998 244.158 200.828 243.886 200.348L240.832 194.95L247.902 190.951Z" fill="white" stroke="black" stroke-width="2"/>
<path d="M221.432 154.318C221.281 153.4 222.356 152.791 223.066 153.394L224.138 154.304C224.668 154.754 224.588 155.594 223.983 155.936L223.139 156.414C222.534 156.756 221.773 156.392 221.66 155.705L221.432 154.318Z" fill="black"/>
<circle cx="236.603" cy="179.43" r="2.53061" fill="black"/>
<path d="M166.5 92C141.095 92 120.5 112.595 120.5 138H212.5C212.5 112.595 191.905 92 166.5 92Z" stroke="black" stroke-width="9"/>
<path d="M166.5 92C141.095 92 120.5 112.595 120.5 138H212.5C212.5 112.595 191.905 92 166.5 92Z" stroke="white"/>
<circle cx="212.5" cy="138" r="2" fill="#5B40FF"/>
<mask id="path-18-outside-1_751_1157" maskUnits="userSpaceOnUse" x="209.702" y="87.5" width="16" height="54" fill="black">
<rect fill="white" x="209.702" y="87.5" width="16" height="54"/>
<path d="M214.702 138C214.702 139.105 213.806 140 212.702 140C211.597 140 210.702 139.105 210.702 138C210.702 136.895 211.597 136 212.702 136C213.806 136 214.702 136.895 214.702 138Z"/>
</mask>
<path d="M214.702 138C214.702 139.105 213.806 140 212.702 140C211.597 140 210.702 139.105 210.702 138C210.702 136.895 211.597 136 212.702 136C213.806 136 214.702 136.895 214.702 138Z" fill="#5B40FF"/>
<path d="M214.263 140.853L217.555 138.438L215.14 135.147L211.848 137.562L214.263 140.853ZM222.438 87.6467L219.147 90.0616L221.562 93.3533L224.853 90.9384L222.438 87.6467ZM215.196 138.076L222.494 90.5759L221.506 90.4241L214.207 137.924L215.196 138.076ZM213.702 138C213.702 138.552 213.254 139 212.702 139V141C214.359 141 215.702 139.657 215.702 138H213.702ZM212.702 139C212.149 139 211.702 138.552 211.702 138H209.702C209.702 139.657 211.045 141 212.702 141V139ZM211.702 138C211.702 137.448 212.149 137 212.702 137V135C211.045 135 209.702 136.343 209.702 138H211.702ZM212.702 137C213.254 137 213.702 137.448 213.702 138H215.702C215.702 136.343 214.359 135 212.702 135V137Z" fill="#F24E1E" mask="url(#path-18-outside-1_751_1157)"/>
<circle cx="120.5" cy="138" r="2" fill="#5B40FF"/>
<circle cx="166.5" cy="92" r="2" fill="#5B40FF"/>
<rect x="241" y="79.5" width="98" height="17" rx="2.5" fill="white" stroke="black" stroke-width="3"/>
<rect x="1.5" y="-1.5" width="98" height="54" rx="2.5" transform="matrix(1 0 0 -1 239.5 71)" fill="white" stroke="black" stroke-width="3"/>
<rect x="293" y="146.5" width="46" height="12" rx="6" fill="black" stroke="black" stroke-width="3"/>
<rect x="241" y="102.5" width="98" height="9" rx="2.5" fill="white" stroke="black" stroke-width="3"/>
<rect x="241" y="115.5" width="98" height="9" rx="2.5" fill="white" stroke="black" stroke-width="3"/>
<rect x="241" y="128.5" width="98" height="9" rx="2.5" fill="white" stroke="black" stroke-width="3"/>
<rect x="271" y="40.5" width="38" height="38" rx="19" fill="white" stroke="black" stroke-width="3"/>
<circle cx="290.353" cy="53.3847" r="5.18647" stroke="black" stroke-width="2"/>
<path d="M290.353 60.6396C285.083 60.6396 280.81 64.9122 280.81 70.1828H299.896C299.896 64.9122 295.624 60.6396 290.353 60.6396Z" stroke="black" stroke-width="2"/>
<path d="M55.6188 133.18L56.2906 136.035L58.2122 133.819L71.4249 118.584L66.3918 138.112L65.6598 140.953L68.391 139.884L87.1707 132.533L73.6386 147.486L71.6706 149.661L74.5858 149.983L94.6302 152.202L75.6992 159.154L72.946 160.165L75.3773 161.805L92.0946 173.085L72.1016 170.443L69.1939 170.058L70.5843 172.641L80.1447 190.398L63.6698 178.767L61.2737 177.075L61.3047 180.008L61.5181 200.174L52.3355 182.219L51 179.607L49.6645 182.219L40.4819 200.174L40.6953 180.008L40.7263 177.075L38.3302 178.767L21.8553 190.398L31.4157 172.641L32.8061 170.058L29.8984 170.443L9.90541 173.085L26.6227 161.805L29.054 160.165L26.3007 159.154L7.36978 152.202L27.4142 149.983L30.3294 149.661L28.3614 147.486L14.8293 132.533L33.609 139.884L36.3402 140.953L35.6082 138.112L30.5751 118.584L43.7878 133.819L45.7094 136.035L46.3812 133.18L51 113.549L55.6188 133.18Z" fill="#29FFAD" stroke="black" stroke-width="3"/>
<path d="M47.6053 14.8948L47.3447 30.2067L47.3373 30.6396L47.5618 31.0098L55.5009 44.1052L40.1891 43.8446L39.7562 43.8373L39.3859 44.0617L26.2905 52.0009L26.5511 36.6891L26.5585 36.2561L26.334 35.8859L18.3949 22.7905L33.7067 23.0511L34.1396 23.0585L34.5099 22.834L47.6053 14.8948Z" fill="#F24E1E" stroke="black" stroke-width="3"/>
<path d="M64.3619 54.7732L70.5751 60.5621L70.7863 60.7589L71.0699 60.8128L79.4123 62.4002L73.6234 68.6135L73.4266 68.8247L73.3727 69.1082L71.7853 77.4506L65.572 71.6617L65.3608 71.465L65.0773 71.411L56.7348 69.8236L62.5237 63.6104L62.7205 63.3992L62.7745 63.1156L64.3619 54.7732Z" fill="#FDBD39" stroke="black" stroke-width="2"/>
<path d="M78.2718 25.3442L80.985 27.8721L81.1961 28.0688L81.4797 28.1228L85.1226 28.816L82.5948 31.5291L82.398 31.7403L82.344 32.0239L81.6509 35.6668L78.9377 33.1389L78.7265 32.9421L78.443 32.8882L74.8001 32.195L77.3279 29.4819L77.5247 29.2707L77.5786 28.9871L78.2718 25.3442Z" fill="#FDBD39" stroke="black" stroke-width="2"/>
</svg>
