<svg width="206" height="112" viewBox="0 0 206 112" fill="none" xmlns="http://www.w3.org/2000/svg">
<path d="M60 25H66C66.5523 25 67 25.4477 67 26V110C67 110.552 66.5523 111 66 111H65C61.6863 111 59 108.314 59 105V26C59 25.4477 59.4477 25 60 25Z" stroke="black" stroke-width="2"/>
<path d="M17 15H43L42.3787 17.4851C42.1561 18.3754 41.3562 19 40.4384 19H19.5616C18.6438 19 17.8439 18.3754 17.6213 17.4851L17 15Z" fill="#020202"/>
<rect x="6" y="14" width="47" height="97" rx="6" stroke="black" stroke-width="2"/>
<path d="M28.2903 74.4194L23.4516 69.5806L32 61L42 61.5161L33.5 69.5M28.2903 74.4194L33.5 69.5M28.2903 74.4194L32.3226 78.4516H42L33.5 69.5M21.8387 67.9677L17 63.129L32.3226 47H42L21.8387 67.9677Z" stroke="black" stroke-width="2"/>
<path d="M65 14H173C174.657 14 176 15.3431 176 17V22C176 23.6569 174.657 25 173 25H62C60.3431 25 59 23.6569 59 22V20C59 16.6863 61.6863 14 65 14Z" stroke="black" stroke-width="2"/>
<rect x="59" y="14" width="117" height="97" rx="6" stroke="black" stroke-width="2"/>
<rect x="73" y="35" width="9" height="3" rx="1" stroke="black" stroke-width="2"/>
<rect x="82" y="41" width="68" height="3" rx="1" stroke="black" stroke-width="2"/>
<rect x="73" y="47" width="8" height="3" rx="1" stroke="black" stroke-width="2"/>
<rect x="73" y="47" width="8" height="3" rx="1" stroke="black" stroke-width="2"/>
<rect x="82" y="59" width="47" height="3" rx="1" stroke="black" stroke-width="2"/>
<rect x="82" y="65" width="47" height="3" rx="1" stroke="black" stroke-width="2"/>
<rect x="73" y="71" width="9" height="3" rx="1" stroke="black" stroke-width="2"/>
<rect x="73" y="77" width="12" height="3" rx="1" stroke="black" stroke-width="2"/>
<rect x="82" y="83" width="47" height="3" rx="1" stroke="black" stroke-width="2"/>
<rect x="73" y="89" width="10" height="3" rx="1" stroke="black" stroke-width="2"/>
<rect x="82" y="95" width="47" height="3" rx="1" stroke="black" stroke-width="2"/>
<rect x="125" y="1.5" width="80" height="23" rx="11.5" fill="#0ACF83"/>
<path d="M148.699 17.716C148.131 17.716 147.615 17.596 147.151 17.356C146.687 17.116 146.319 16.76 146.047 16.288C145.783 15.816 145.651 15.228 145.651 14.524V14.224H146.827V14.74C146.827 15.34 147.003 15.808 147.355 16.144C147.707 16.472 148.155 16.636 148.699 16.636C149.243 16.636 149.691 16.472 150.043 16.144C150.395 15.808 150.571 15.34 150.571 14.74V9.556H151.747V14.524C151.747 15.228 151.611 15.816 151.339 16.288C151.075 16.76 150.711 17.116 150.247 17.356C149.791 17.596 149.275 17.716 148.699 17.716ZM146.803 9.796V8.74H151.747V9.796H146.803ZM156.195 17.692C155.435 17.692 154.851 17.444 154.443 16.948C154.035 16.452 153.831 15.736 153.831 14.8V11.08H154.983V15.028C154.983 15.532 155.119 15.928 155.391 16.216C155.663 16.496 156.031 16.636 156.495 16.636C156.975 16.636 157.367 16.484 157.671 16.18C157.975 15.868 158.127 15.444 158.127 14.908V11.08H159.279V17.5H158.367V14.752H158.511C158.511 15.384 158.427 15.92 158.259 16.36C158.091 16.792 157.839 17.124 157.503 17.356C157.175 17.58 156.755 17.692 156.243 17.692H156.195ZM161.51 17.5V11.092H162.422V13.84H162.278C162.278 13.208 162.362 12.676 162.53 12.244C162.706 11.804 162.97 11.472 163.322 11.248C163.674 11.016 164.118 10.9 164.654 10.9H164.702C165.51 10.9 166.106 11.152 166.49 11.656C166.882 12.16 167.078 12.888 167.078 13.84V17.5H165.926V13.6C165.926 13.104 165.786 12.708 165.506 12.412C165.226 12.108 164.842 11.956 164.354 11.956C163.85 11.956 163.442 12.112 163.13 12.424C162.818 12.736 162.662 13.152 162.662 13.672V17.5H161.51ZM169.498 17.5V11.092H170.65V17.5H169.498ZM168.514 12.004V11.092H170.65V12.004H168.514ZM169.822 10.06C169.566 10.06 169.374 9.992 169.246 9.856C169.126 9.72 169.066 9.548 169.066 9.34C169.066 9.132 169.126 8.96 169.246 8.824C169.374 8.688 169.566 8.62 169.822 8.62C170.078 8.62 170.266 8.688 170.386 8.824C170.514 8.96 170.578 9.132 170.578 9.34C170.578 9.548 170.514 9.72 170.386 9.856C170.266 9.992 170.078 10.06 169.822 10.06ZM175.83 17.716C175.27 17.716 174.778 17.62 174.354 17.428C173.93 17.236 173.57 16.984 173.274 16.672C172.986 16.352 172.766 15.996 172.614 15.604C172.47 15.212 172.398 14.812 172.398 14.404V14.188C172.398 13.78 172.474 13.38 172.626 12.988C172.778 12.588 173.002 12.232 173.298 11.92C173.594 11.6 173.954 11.348 174.378 11.164C174.802 10.972 175.286 10.876 175.83 10.876C176.374 10.876 176.858 10.972 177.282 11.164C177.706 11.348 178.066 11.6 178.362 11.92C178.658 12.232 178.882 12.588 179.034 12.988C179.186 13.38 179.262 13.78 179.262 14.188V14.404C179.262 14.812 179.186 15.212 179.034 15.604C178.89 15.996 178.67 16.352 178.374 16.672C178.086 16.984 177.73 17.236 177.306 17.428C176.882 17.62 176.39 17.716 175.83 17.716ZM175.83 16.684C176.31 16.684 176.718 16.58 177.054 16.372C177.398 16.156 177.658 15.868 177.834 15.508C178.018 15.148 178.11 14.744 178.11 14.296C178.11 13.84 178.018 13.432 177.834 13.072C177.65 12.712 177.386 12.428 177.042 12.22C176.706 12.012 176.302 11.908 175.83 11.908C175.366 11.908 174.962 12.012 174.618 12.22C174.274 12.428 174.01 12.712 173.826 13.072C173.642 13.432 173.55 13.84 173.55 14.296C173.55 14.744 173.638 15.148 173.814 15.508C173.998 15.868 174.258 16.156 174.594 16.372C174.938 16.58 175.35 16.684 175.83 16.684ZM180.987 17.5V11.092H181.899V13.732H181.851C181.851 12.796 182.055 12.112 182.463 11.68C182.879 11.24 183.499 11.02 184.323 11.02H184.539V12.052H184.131C183.491 12.052 182.999 12.224 182.655 12.568C182.311 12.904 182.139 13.392 182.139 14.032V17.5H180.987Z" fill="black"/>
<rect x="125" y="1.5" width="80" height="23" rx="11.5" stroke="black" stroke-width="2"/>
<circle cx="68.5" cy="19.5" r="2" fill="#D9D9D9" stroke="black"/>
<circle cx="77.5" cy="19.5" r="2" fill="#D9D9D9" stroke="black"/>
<circle cx="86.5" cy="19.5" r="2" fill="#D9D9D9" stroke="black"/>
</svg>
