<svg width="206" height="112" viewBox="0 0 206 112" fill="none" xmlns="http://www.w3.org/2000/svg">
<rect x="19" y="14" width="143" height="97" rx="6" stroke="black" stroke-width="2"/>
<rect x="125" y="1.5" width="80" height="23" rx="11.5" fill="#FF884B"/>
<path d="M148.699 17.716C148.131 17.716 147.615 17.596 147.151 17.356C146.687 17.116 146.319 16.76 146.047 16.288C145.783 15.816 145.651 15.228 145.651 14.524V14.224H146.827V14.74C146.827 15.34 147.003 15.808 147.355 16.144C147.707 16.472 148.155 16.636 148.699 16.636C149.243 16.636 149.691 16.472 150.043 16.144C150.395 15.808 150.571 15.34 150.571 14.74V9.556H151.747V14.524C151.747 15.228 151.611 15.816 151.339 16.288C151.075 16.76 150.711 17.116 150.247 17.356C149.791 17.596 149.275 17.716 148.699 17.716ZM146.803 9.796V8.74H151.747V9.796H146.803ZM156.195 17.692C155.435 17.692 154.851 17.444 154.443 16.948C154.035 16.452 153.831 15.736 153.831 14.8V11.08H154.983V15.028C154.983 15.532 155.119 15.928 155.391 16.216C155.663 16.496 156.031 16.636 156.495 16.636C156.975 16.636 157.367 16.484 157.671 16.18C157.975 15.868 158.127 15.444 158.127 14.908V11.08H159.279V17.5H158.367V14.752H158.511C158.511 15.384 158.427 15.92 158.259 16.36C158.091 16.792 157.839 17.124 157.503 17.356C157.175 17.58 156.755 17.692 156.243 17.692H156.195ZM161.51 17.5V11.092H162.422V13.84H162.278C162.278 13.208 162.362 12.676 162.53 12.244C162.706 11.804 162.97 11.472 163.322 11.248C163.674 11.016 164.118 10.9 164.654 10.9H164.702C165.51 10.9 166.106 11.152 166.49 11.656C166.882 12.16 167.078 12.888 167.078 13.84V17.5H165.926V13.6C165.926 13.104 165.786 12.708 165.506 12.412C165.226 12.108 164.842 11.956 164.354 11.956C163.85 11.956 163.442 12.112 163.13 12.424C162.818 12.736 162.662 13.152 162.662 13.672V17.5H161.51ZM169.498 17.5V11.092H170.65V17.5H169.498ZM168.514 12.004V11.092H170.65V12.004H168.514ZM169.822 10.06C169.566 10.06 169.374 9.992 169.246 9.856C169.126 9.72 169.066 9.548 169.066 9.34C169.066 9.132 169.126 8.96 169.246 8.824C169.374 8.688 169.566 8.62 169.822 8.62C170.078 8.62 170.266 8.688 170.386 8.824C170.514 8.96 170.578 9.132 170.578 9.34C170.578 9.548 170.514 9.72 170.386 9.856C170.266 9.992 170.078 10.06 169.822 10.06ZM175.83 17.716C175.27 17.716 174.778 17.62 174.354 17.428C173.93 17.236 173.57 16.984 173.274 16.672C172.986 16.352 172.766 15.996 172.614 15.604C172.47 15.212 172.398 14.812 172.398 14.404V14.188C172.398 13.78 172.474 13.38 172.626 12.988C172.778 12.588 173.002 12.232 173.298 11.92C173.594 11.6 173.954 11.348 174.378 11.164C174.802 10.972 175.286 10.876 175.83 10.876C176.374 10.876 176.858 10.972 177.282 11.164C177.706 11.348 178.066 11.6 178.362 11.92C178.658 12.232 178.882 12.588 179.034 12.988C179.186 13.38 179.262 13.78 179.262 14.188V14.404C179.262 14.812 179.186 15.212 179.034 15.604C178.89 15.996 178.67 16.352 178.374 16.672C178.086 16.984 177.73 17.236 177.306 17.428C176.882 17.62 176.39 17.716 175.83 17.716ZM175.83 16.684C176.31 16.684 176.718 16.58 177.054 16.372C177.398 16.156 177.658 15.868 177.834 15.508C178.018 15.148 178.11 14.744 178.11 14.296C178.11 13.84 178.018 13.432 177.834 13.072C177.65 12.712 177.386 12.428 177.042 12.22C176.706 12.012 176.302 11.908 175.83 11.908C175.366 11.908 174.962 12.012 174.618 12.22C174.274 12.428 174.01 12.712 173.826 13.072C173.642 13.432 173.55 13.84 173.55 14.296C173.55 14.744 173.638 15.148 173.814 15.508C173.998 15.868 174.258 16.156 174.594 16.372C174.938 16.58 175.35 16.684 175.83 16.684ZM180.987 17.5V11.092H181.899V13.732H181.851C181.851 12.796 182.055 12.112 182.463 11.68C182.879 11.24 183.499 11.02 184.323 11.02H184.539V12.052H184.131C183.491 12.052 182.999 12.224 182.655 12.568C182.311 12.904 182.139 13.392 182.139 14.032V17.5H180.987Z" fill="black"/>
<rect x="125" y="1.5" width="80" height="23" rx="11.5" stroke="black" stroke-width="2"/>
<rect x="28" y="59" width="125" height="3" rx="1" stroke="black" stroke-width="2"/>
<rect x="28" y="65" width="125" height="3" rx="1" stroke="black" stroke-width="2"/>
<rect x="28" y="71" width="125" height="3" rx="1" stroke="black" stroke-width="2"/>
<rect x="28" y="77" width="115" height="3" rx="1" stroke="black" stroke-width="2"/>
<rect x="28" y="83" width="56" height="3" rx="1" stroke="black" stroke-width="2"/>
<rect x="103" y="91" width="50" height="11" rx="5.5" stroke="black" stroke-width="2"/>
<rect x="28" y="23" width="64" height="32" rx="6" stroke="black" stroke-width="2"/>
<path d="M42 50.36L50.992 27H53.488L62.8 50.36H61.744L52.624 27.48C52.624 27.48 53.1958 27.6898 53.456 27.96C54.1322 28.662 50.2838 28.662 50.96 27.96C51.2202 27.6898 51.792 27.48 51.792 27.48L43.024 50.36H42ZM45.776 42.04L46.128 41.08H58.48L58.864 42.04H45.776Z" fill="black"/>
<path d="M77.852 50.36V45.368H77.66V39.096C77.66 37.6667 77.276 36.5467 76.508 35.736C75.7613 34.9253 74.4707 34.52 72.636 34.52C72.0813 34.52 71.5267 34.5413 70.972 34.584C70.4387 34.6053 69.9267 34.6373 69.436 34.68C68.9667 34.7227 68.5293 34.776 68.124 34.84V33.88C68.5507 33.816 68.988 33.7627 69.436 33.72C69.884 33.656 70.332 33.6133 70.78 33.592C71.2493 33.5707 71.6973 33.56 72.124 33.56C73.788 33.56 75.0893 33.784 76.028 34.232C76.988 34.68 77.6707 35.3307 78.076 36.184C78.4813 37.0373 78.684 38.0933 78.684 39.352V50.36H77.852ZM71.868 50.808C70.8227 50.808 69.852 50.616 68.956 50.232C68.0813 49.8267 67.3773 49.24 66.844 48.472C66.332 47.704 66.076 46.7653 66.076 45.656C66.076 44.6533 66.3107 43.7787 66.78 43.032C67.2707 42.2853 67.964 41.7093 68.86 41.304C69.756 40.8987 70.844 40.696 72.124 40.696H77.724V41.592H71.932C70.3747 41.592 69.18 41.9653 68.348 42.712C67.516 43.4587 67.1 44.4507 67.1 45.688C67.1 47.0107 67.5587 48.0453 68.476 48.792C69.3933 49.5387 70.5453 49.912 71.932 49.912C72.828 49.912 73.7027 49.7413 74.556 49.4C75.4093 49.0587 76.124 48.4827 76.7 47.672C77.2973 46.84 77.6173 45.7307 77.66 44.344L78.172 44.856C78.1293 46.2 77.8093 47.32 77.212 48.216C76.6147 49.0907 75.8467 49.7413 74.908 50.168C73.9907 50.5947 72.9773 50.808 71.868 50.808Z" fill="black"/>
<path d="M42 50.36L50.992 27H53.488L62.8 50.36H61.744L52.624 27.48C52.624 27.48 53.1958 27.6898 53.456 27.96C54.1322 28.662 50.2838 28.662 50.96 27.96C51.2202 27.6898 51.792 27.48 51.792 27.48L43.024 50.36H42ZM45.776 42.04L46.128 41.08H58.48L58.864 42.04H45.776Z" stroke="black"/>
<path d="M77.852 50.36V45.368H77.66V39.096C77.66 37.6667 77.276 36.5467 76.508 35.736C75.7613 34.9253 74.4707 34.52 72.636 34.52C72.0813 34.52 71.5267 34.5413 70.972 34.584C70.4387 34.6053 69.9267 34.6373 69.436 34.68C68.9667 34.7227 68.5293 34.776 68.124 34.84V33.88C68.5507 33.816 68.988 33.7627 69.436 33.72C69.884 33.656 70.332 33.6133 70.78 33.592C71.2493 33.5707 71.6973 33.56 72.124 33.56C73.788 33.56 75.0893 33.784 76.028 34.232C76.988 34.68 77.6707 35.3307 78.076 36.184C78.4813 37.0373 78.684 38.0933 78.684 39.352V50.36H77.852ZM71.868 50.808C70.8227 50.808 69.852 50.616 68.956 50.232C68.0813 49.8267 67.3773 49.24 66.844 48.472C66.332 47.704 66.076 46.7653 66.076 45.656C66.076 44.6533 66.3107 43.7787 66.78 43.032C67.2707 42.2853 67.964 41.7093 68.86 41.304C69.756 40.8987 70.844 40.696 72.124 40.696H77.724V41.592H71.932C70.3747 41.592 69.18 41.9653 68.348 42.712C67.516 43.4587 67.1 44.4507 67.1 45.688C67.1 47.0107 67.5587 48.0453 68.476 48.792C69.3933 49.5387 70.5453 49.912 71.932 49.912C72.828 49.912 73.7027 49.7413 74.556 49.4C75.4093 49.0587 76.124 48.4827 76.7 47.672C77.2973 46.84 77.6173 45.7307 77.66 44.344L78.172 44.856C78.1293 46.2 77.8093 47.32 77.212 48.216C76.6147 49.0907 75.8467 49.7413 74.908 50.168C73.9907 50.5947 72.9773 50.808 71.868 50.808Z" stroke="black"/>
</svg>
