<svg width="206" height="112" viewBox="0 0 206 112" fill="none" xmlns="http://www.w3.org/2000/svg">
<path d="M34.7324 77.3673C32.0658 77.3673 29.8791 76.8607 28.1724 75.8473C26.4924 74.834 25.2524 73.4473 24.4524 71.6873C23.6524 69.9273 23.2524 67.9407 23.2524 65.7273V47.5273H24.5324V65.8873C24.5324 67.9407 24.8924 69.7407 25.6124 71.2873C26.3324 72.834 27.4391 74.034 28.9324 74.8873C30.4524 75.7407 32.3858 76.1673 34.7324 76.1673C37.1058 76.1673 39.0391 75.7407 40.5324 74.8873C42.0258 74.034 43.1324 72.834 43.8524 71.2873C44.5724 69.7407 44.9324 67.9407 44.9324 65.8873V47.5273H46.2124V65.7273C46.2124 67.9407 45.8124 69.9273 45.0124 71.6873C44.2124 73.4473 42.9724 74.834 41.2924 75.8473C39.6124 76.8607 37.4258 77.3673 34.7324 77.3673Z" fill="black"/>
<path d="M51.6428 76.6873L63.2028 61.0873L63.1228 61.9673L52.8828 47.5273H54.2828L63.7228 60.8873H64.1228L73.7628 47.5273H75.2028L64.5228 62.2873L64.6028 61.4073L75.6428 76.7273H74.2428L64.0028 62.4873H63.6028L53.0828 76.7273L51.6428 76.6873Z" fill="black"/>
<rect x="0.5" y="13.5" width="97.8952" height="97.8952" rx="48.9476" stroke="black"/>
<path d="M126.48 77.3673C123.814 77.3673 121.627 76.8607 119.92 75.8473C118.24 74.834 117 73.4473 116.2 71.6873C115.4 69.9273 115 67.9407 115 65.7273V47.5273H116.28V65.8873C116.28 67.9407 116.64 69.7407 117.36 71.2873C118.08 72.834 119.187 74.034 120.68 74.8873C122.2 75.7407 124.134 76.1673 126.48 76.1673C128.854 76.1673 130.787 75.7407 132.28 74.8873C133.774 74.034 134.88 72.834 135.6 71.2873C136.32 69.7407 136.68 67.9407 136.68 65.8873V47.5273H137.96V65.7273C137.96 67.9407 137.56 69.9273 136.76 71.6873C135.96 73.4473 134.72 74.834 133.04 75.8473C131.36 76.8607 129.174 77.3673 126.48 77.3673Z" fill="black"/>
<path d="M147.867 76.7273V47.5273H149.147V76.7273H147.867Z" fill="black"/>
<rect x="124" y="0.5" width="82" height="25" rx="12.5" fill="#FF884B"/>
<path d="M149.301 17.704C148.565 17.704 147.945 17.588 147.441 17.356C146.937 17.116 146.553 16.788 146.289 16.372C146.033 15.948 145.905 15.472 145.905 14.944H146.817C146.817 15.28 146.897 15.596 147.057 15.892C147.225 16.18 147.489 16.416 147.849 16.6C148.217 16.776 148.701 16.864 149.301 16.864C149.853 16.864 150.309 16.784 150.669 16.624C151.037 16.464 151.309 16.248 151.485 15.976C151.669 15.704 151.761 15.4 151.761 15.064C151.761 14.64 151.593 14.288 151.257 14.008C150.929 13.72 150.433 13.548 149.769 13.492L148.761 13.396C148.009 13.332 147.409 13.1 146.961 12.7C146.521 12.292 146.301 11.756 146.301 11.092C146.301 10.588 146.421 10.144 146.661 9.76C146.901 9.376 147.241 9.072 147.681 8.848C148.129 8.624 148.665 8.512 149.289 8.512C149.921 8.512 150.461 8.628 150.909 8.86C151.365 9.084 151.713 9.396 151.953 9.796C152.193 10.196 152.313 10.66 152.313 11.188H151.401C151.401 10.868 151.329 10.568 151.185 10.288C151.041 10.008 150.813 9.784 150.501 9.616C150.189 9.44 149.785 9.352 149.289 9.352C148.817 9.352 148.425 9.432 148.113 9.592C147.809 9.752 147.581 9.964 147.429 10.228C147.285 10.492 147.213 10.78 147.213 11.092C147.213 11.484 147.353 11.816 147.633 12.088C147.913 12.36 148.317 12.516 148.845 12.556L149.853 12.652C150.445 12.7 150.949 12.832 151.365 13.048C151.789 13.256 152.113 13.532 152.337 13.876C152.561 14.212 152.673 14.608 152.673 15.064C152.673 15.576 152.533 16.032 152.253 16.432C151.981 16.832 151.593 17.144 151.089 17.368C150.585 17.592 149.989 17.704 149.301 17.704ZM157.308 17.704C156.764 17.704 156.292 17.612 155.892 17.428C155.492 17.236 155.164 16.984 154.908 16.672C154.652 16.352 154.46 15.996 154.332 15.604C154.212 15.212 154.152 14.808 154.152 14.392V14.224C154.152 13.816 154.212 13.416 154.332 13.024C154.46 12.632 154.652 12.28 154.908 11.968C155.164 11.656 155.484 11.408 155.868 11.224C156.26 11.032 156.716 10.936 157.236 10.936C157.9 10.936 158.452 11.084 158.892 11.38C159.34 11.676 159.676 12.056 159.9 12.52C160.124 12.976 160.236 13.468 160.236 13.996V14.464H154.56V13.768H159.612L159.384 14.116C159.384 13.644 159.3 13.232 159.132 12.88C158.972 12.52 158.732 12.24 158.412 12.04C158.1 11.832 157.708 11.728 157.236 11.728C156.74 11.728 156.328 11.844 156 12.076C155.672 12.308 155.424 12.616 155.256 13C155.096 13.384 155.016 13.82 155.016 14.308C155.016 14.788 155.096 15.228 155.256 15.628C155.424 16.02 155.676 16.332 156.012 16.564C156.356 16.796 156.788 16.912 157.308 16.912C157.86 16.912 158.308 16.788 158.652 16.54C158.996 16.284 159.208 15.984 159.288 15.64H160.128C160.048 16.064 159.88 16.432 159.624 16.744C159.368 17.048 159.044 17.284 158.652 17.452C158.26 17.62 157.812 17.704 157.308 17.704ZM161.969 17.5V11.152H162.689V13.816H162.545C162.545 13.224 162.633 12.716 162.809 12.292C162.985 11.868 163.249 11.54 163.601 11.308C163.953 11.076 164.397 10.96 164.933 10.96H164.969C165.769 10.96 166.365 11.212 166.757 11.716C167.149 12.212 167.345 12.912 167.345 13.816V17.5H166.457V13.624C166.457 13.072 166.305 12.628 166.001 12.292C165.697 11.956 165.273 11.788 164.729 11.788C164.169 11.788 163.717 11.964 163.373 12.316C163.037 12.66 162.869 13.116 162.869 13.684V17.5H161.969ZM169.922 17.5V11.152H170.81V17.5H169.922ZM168.902 11.872V11.152H170.81V11.872H168.902ZM170.114 9.976C169.898 9.976 169.734 9.92 169.622 9.808C169.518 9.688 169.466 9.54 169.466 9.364C169.466 9.188 169.518 9.044 169.622 8.932C169.734 8.812 169.898 8.752 170.114 8.752C170.33 8.752 170.49 8.812 170.594 8.932C170.698 9.044 170.75 9.188 170.75 9.364C170.75 9.54 170.698 9.688 170.594 9.808C170.49 9.92 170.33 9.976 170.114 9.976ZM176.016 17.704C175.472 17.704 174.992 17.612 174.576 17.428C174.168 17.236 173.82 16.984 173.532 16.672C173.252 16.352 173.036 15.996 172.884 15.604C172.74 15.212 172.668 14.812 172.668 14.404V14.236C172.668 13.828 172.744 13.428 172.896 13.036C173.048 12.636 173.268 12.28 173.556 11.968C173.844 11.656 174.192 11.408 174.6 11.224C175.016 11.032 175.488 10.936 176.016 10.936C176.552 10.936 177.024 11.032 177.432 11.224C177.848 11.408 178.2 11.656 178.488 11.968C178.776 12.28 178.992 12.636 179.136 13.036C179.288 13.428 179.364 13.828 179.364 14.236V14.404C179.364 14.812 179.292 15.212 179.148 15.604C179.004 15.996 178.788 16.352 178.5 16.672C178.22 16.984 177.872 17.236 177.456 17.428C177.04 17.612 176.56 17.704 176.016 17.704ZM176.016 16.9C176.544 16.9 176.988 16.784 177.348 16.552C177.716 16.312 177.996 16 178.188 15.616C178.38 15.224 178.476 14.792 178.476 14.32C178.476 13.84 178.376 13.408 178.176 13.024C177.984 12.632 177.704 12.324 177.336 12.1C176.968 11.868 176.528 11.752 176.016 11.752C175.512 11.752 175.076 11.868 174.708 12.1C174.34 12.324 174.056 12.632 173.856 13.024C173.664 13.408 173.568 13.84 173.568 14.32C173.568 14.792 173.664 15.224 173.856 15.616C174.048 16 174.324 16.312 174.684 16.552C175.052 16.784 175.496 16.9 176.016 16.9ZM181.199 17.5V11.152H181.919V13.804H181.847C181.847 12.876 182.051 12.192 182.459 11.752C182.867 11.304 183.507 11.08 184.379 11.08H184.583V11.896H184.211C183.523 11.896 182.999 12.076 182.639 12.436C182.279 12.788 182.099 13.308 182.099 13.996V17.5H181.199Z" fill="black"/>
<rect x="83.6047" y="13.5" width="97.8952" height="97.8952" rx="48.9476" stroke="black"/>
</svg>
