<svg width="206" height="112" viewBox="0 0 206 112" fill="none" xmlns="http://www.w3.org/2000/svg">
<path d="M34.7324 77.3673C32.0658 77.3673 29.8791 76.8607 28.1724 75.8473C26.4924 74.834 25.2524 73.4473 24.4524 71.6873C23.6524 69.9273 23.2524 67.9407 23.2524 65.7273V47.5273H24.5324V65.8873C24.5324 67.9407 24.8924 69.7407 25.6124 71.2873C26.3324 72.834 27.4391 74.034 28.9324 74.8873C30.4524 75.7407 32.3858 76.1673 34.7324 76.1673C37.1058 76.1673 39.0391 75.7407 40.5324 74.8873C42.0258 74.034 43.1324 72.834 43.8524 71.2873C44.5724 69.7407 44.9324 67.9407 44.9324 65.8873V47.5273H46.2124V65.7273C46.2124 67.9407 45.8124 69.9273 45.0124 71.6873C44.2124 73.4473 42.9724 74.834 41.2924 75.8473C39.6124 76.8607 37.4258 77.3673 34.7324 77.3673Z" fill="black"/>
<path d="M51.6428 76.6873L63.2028 61.0873L63.1228 61.9673L52.8828 47.5273H54.2828L63.7228 60.8873H64.1228L73.7628 47.5273H75.2028L64.5228 62.2873L64.6028 61.4073L75.6428 76.7273H74.2428L64.0028 62.4873H63.6028L53.0828 76.7273L51.6428 76.6873Z" fill="black"/>
<rect x="0.5" y="13.5" width="97.8952" height="97.8952" rx="48.9476" stroke="black"/>
<path d="M126.48 77.3673C123.814 77.3673 121.627 76.8607 119.92 75.8473C118.24 74.834 117 73.4473 116.2 71.6873C115.4 69.9273 115 67.9407 115 65.7273V47.5273H116.28V65.8873C116.28 67.9407 116.64 69.7407 117.36 71.2873C118.08 72.834 119.187 74.034 120.68 74.8873C122.2 75.7407 124.134 76.1673 126.48 76.1673C128.854 76.1673 130.787 75.7407 132.28 74.8873C133.774 74.034 134.88 72.834 135.6 71.2873C136.32 69.7407 136.68 67.9407 136.68 65.8873V47.5273H137.96V65.7273C137.96 67.9407 137.56 69.9273 136.76 71.6873C135.96 73.4473 134.72 74.834 133.04 75.8473C131.36 76.8607 129.174 77.3673 126.48 77.3673Z" fill="black"/>
<path d="M147.867 76.7273V47.5273H149.147V76.7273H147.867Z" fill="black"/>
<rect x="83.6047" y="13.5" width="97.8952" height="97.8952" rx="48.9476" stroke="black"/>
<rect x="125.5" y="2" width="79" height="22" rx="11" fill="#FF884B"/>
<path d="M149.606 17.716C148.878 17.716 148.258 17.596 147.746 17.356C147.234 17.116 146.842 16.784 146.57 16.36C146.298 15.936 146.162 15.456 146.162 14.92H147.338C147.338 15.184 147.406 15.448 147.542 15.712C147.686 15.976 147.922 16.196 148.25 16.372C148.586 16.548 149.038 16.636 149.606 16.636C150.134 16.636 150.566 16.56 150.902 16.408C151.238 16.248 151.486 16.044 151.646 15.796C151.806 15.54 151.886 15.264 151.886 14.968C151.886 14.608 151.73 14.312 151.418 14.08C151.106 13.84 150.65 13.692 150.05 13.636L149.078 13.552C148.302 13.488 147.682 13.248 147.218 12.832C146.754 12.416 146.522 11.868 146.522 11.188C146.522 10.652 146.65 10.184 146.906 9.784C147.17 9.384 147.534 9.072 147.998 8.848C148.462 8.616 149.002 8.5 149.618 8.5C150.226 8.5 150.762 8.612 151.226 8.836C151.69 9.06 152.05 9.376 152.306 9.784C152.57 10.184 152.702 10.664 152.702 11.224H151.526C151.526 10.944 151.458 10.68 151.322 10.432C151.194 10.184 150.99 9.98 150.71 9.82C150.43 9.66 150.066 9.58 149.618 9.58C149.186 9.58 148.826 9.656 148.538 9.808C148.258 9.96 148.046 10.16 147.902 10.408C147.766 10.648 147.698 10.908 147.698 11.188C147.698 11.508 147.822 11.792 148.07 12.04C148.318 12.288 148.686 12.432 149.174 12.472L150.146 12.556C150.746 12.604 151.262 12.732 151.694 12.94C152.134 13.14 152.47 13.412 152.702 13.756C152.942 14.092 153.062 14.496 153.062 14.968C153.062 15.504 152.918 15.98 152.63 16.396C152.342 16.812 151.938 17.136 151.418 17.368C150.898 17.6 150.294 17.716 149.606 17.716ZM157.592 17.716C157.032 17.716 156.548 17.62 156.14 17.428C155.732 17.236 155.4 16.984 155.144 16.672C154.888 16.352 154.696 15.996 154.568 15.604C154.448 15.212 154.388 14.812 154.388 14.404V14.188C154.388 13.772 154.448 13.368 154.568 12.976C154.696 12.584 154.888 12.232 155.144 11.92C155.4 11.6 155.724 11.348 156.116 11.164C156.516 10.972 156.984 10.876 157.52 10.876C158.216 10.876 158.788 11.028 159.236 11.332C159.692 11.628 160.028 12.012 160.244 12.484C160.468 12.956 160.58 13.46 160.58 13.996V14.512H154.892V13.648H159.74L159.476 14.116C159.476 13.66 159.404 13.268 159.26 12.94C159.116 12.604 158.9 12.344 158.612 12.16C158.324 11.976 157.96 11.884 157.52 11.884C157.064 11.884 156.684 11.988 156.38 12.196C156.084 12.404 155.86 12.688 155.708 13.048C155.564 13.408 155.492 13.824 155.492 14.296C155.492 14.752 155.564 15.164 155.708 15.532C155.86 15.892 156.092 16.18 156.404 16.396C156.716 16.604 157.112 16.708 157.592 16.708C158.096 16.708 158.504 16.596 158.816 16.372C159.136 16.148 159.328 15.888 159.392 15.592H160.472C160.384 16.032 160.208 16.412 159.944 16.732C159.68 17.052 159.348 17.296 158.948 17.464C158.548 17.632 158.096 17.716 157.592 17.716ZM162.215 17.5V11.092H163.127V13.84H162.983C162.983 13.208 163.067 12.676 163.235 12.244C163.411 11.804 163.675 11.472 164.027 11.248C164.379 11.016 164.823 10.9 165.359 10.9H165.407C166.215 10.9 166.811 11.152 167.195 11.656C167.587 12.16 167.783 12.888 167.783 13.84V17.5H166.631V13.6C166.631 13.104 166.491 12.708 166.211 12.412C165.931 12.108 165.547 11.956 165.059 11.956C164.555 11.956 164.147 12.112 163.835 12.424C163.523 12.736 163.367 13.152 163.367 13.672V17.5H162.215ZM170.203 17.5V11.092H171.355V17.5H170.203ZM169.219 12.004V11.092H171.355V12.004H169.219ZM170.527 10.06C170.271 10.06 170.079 9.992 169.951 9.856C169.831 9.72 169.771 9.548 169.771 9.34C169.771 9.132 169.831 8.96 169.951 8.824C170.079 8.688 170.271 8.62 170.527 8.62C170.783 8.62 170.971 8.688 171.091 8.824C171.219 8.96 171.283 9.132 171.283 9.34C171.283 9.548 171.219 9.72 171.091 9.856C170.971 9.992 170.783 10.06 170.527 10.06ZM176.535 17.716C175.975 17.716 175.483 17.62 175.059 17.428C174.635 17.236 174.275 16.984 173.979 16.672C173.691 16.352 173.471 15.996 173.319 15.604C173.175 15.212 173.103 14.812 173.103 14.404V14.188C173.103 13.78 173.179 13.38 173.331 12.988C173.483 12.588 173.707 12.232 174.003 11.92C174.299 11.6 174.659 11.348 175.083 11.164C175.507 10.972 175.991 10.876 176.535 10.876C177.079 10.876 177.563 10.972 177.987 11.164C178.411 11.348 178.771 11.6 179.067 11.92C179.363 12.232 179.587 12.588 179.739 12.988C179.891 13.38 179.967 13.78 179.967 14.188V14.404C179.967 14.812 179.891 15.212 179.739 15.604C179.595 15.996 179.375 16.352 179.079 16.672C178.791 16.984 178.435 17.236 178.011 17.428C177.587 17.62 177.095 17.716 176.535 17.716ZM176.535 16.684C177.015 16.684 177.423 16.58 177.759 16.372C178.103 16.156 178.363 15.868 178.539 15.508C178.723 15.148 178.815 14.744 178.815 14.296C178.815 13.84 178.723 13.432 178.539 13.072C178.355 12.712 178.091 12.428 177.747 12.22C177.411 12.012 177.007 11.908 176.535 11.908C176.071 11.908 175.667 12.012 175.323 12.22C174.979 12.428 174.715 12.712 174.531 13.072C174.347 13.432 174.255 13.84 174.255 14.296C174.255 14.744 174.343 15.148 174.519 15.508C174.703 15.868 174.963 16.156 175.299 16.372C175.643 16.58 176.055 16.684 176.535 16.684ZM181.692 17.5V11.092H182.604V13.732H182.556C182.556 12.796 182.76 12.112 183.168 11.68C183.584 11.24 184.204 11.02 185.028 11.02H185.244V12.052H184.836C184.196 12.052 183.704 12.224 183.36 12.568C183.016 12.904 182.844 13.392 182.844 14.032V17.5H181.692Z" fill="black"/>
<rect x="125.5" y="2" width="79" height="22" rx="11" stroke="black" stroke-width="3"/>
</svg>
