<svg width="206" height="112" viewBox="0 0 206 112" fill="none" xmlns="http://www.w3.org/2000/svg">
<path d="M28.0433 76.0614L28.0448 76.0623C29.8012 77.1052 32.0358 77.6173 34.7324 77.6173C37.455 77.6173 39.6907 77.1054 41.4216 76.0614C43.1441 75.0224 44.4188 73.5975 45.24 71.7908C46.0568 69.9939 46.4624 67.9712 46.4624 65.7273V47.5273C46.4624 47.3893 46.3505 47.2773 46.2124 47.2773H44.9324C44.7944 47.2773 44.6824 47.3893 44.6824 47.5273V65.8873C44.6824 67.9115 44.3276 69.6743 43.6258 71.1818C42.9278 72.6812 41.8572 73.8424 40.4084 74.6703C38.9645 75.4954 37.078 75.9173 34.7324 75.9173C32.4147 75.9173 30.5273 75.4958 29.0555 74.6697C27.6072 73.8419 26.5369 72.6809 25.8391 71.1818C25.1373 69.6743 24.7824 67.9115 24.7824 65.8873V47.5273C24.7824 47.3893 24.6705 47.2773 24.5324 47.2773H23.2524C23.1144 47.2773 23.0024 47.3893 23.0024 47.5273V65.7273C23.0024 67.9712 23.4081 69.9939 24.2249 71.7908C25.0461 73.5975 26.3208 75.0224 28.0433 76.0614ZM51.4419 76.5385C51.3864 76.6134 51.3772 76.7129 51.4179 76.7967C51.4587 76.8805 51.5427 76.9347 51.6358 76.9372L53.0758 76.9772C53.1576 76.9795 53.2352 76.9417 53.2838 76.8759L63.7289 62.7373H63.8746L74.0398 76.8733C74.0868 76.9386 74.1623 76.9773 74.2428 76.9773H75.6428C75.7366 76.9773 75.8225 76.9248 75.8653 76.8413C75.908 76.7577 75.9004 76.6573 75.8456 76.5812L65.1889 61.7931L75.4053 47.6739C75.4604 47.5978 75.4681 47.4973 75.4254 47.4136C75.3827 47.33 75.2967 47.2773 75.2028 47.2773H73.7628C73.6824 47.2773 73.607 47.3159 73.56 47.3811L63.9949 60.6373H63.8522L54.4869 47.3831C54.4401 47.3168 54.3639 47.2773 54.2828 47.2773H52.8828C52.7893 47.2773 52.7036 47.3295 52.6607 47.4126C52.6177 47.4956 52.6247 47.5957 52.6788 47.672L62.5342 61.5696L51.4419 76.5385Z" fill="black" stroke="black" stroke-width="0.5" stroke-linejoin="round"/>
<rect x="1" y="14" width="96.8952" height="96.8952" rx="48.4476" stroke="black" stroke-width="2"/>
<path d="M119.791 76.0614L119.793 76.0623C121.549 77.1052 123.784 77.6173 126.48 77.6173C129.203 77.6173 131.438 77.1054 133.169 76.0614C134.892 75.0224 136.167 73.5975 136.988 71.7908C137.805 69.9939 138.21 67.9712 138.21 65.7273V47.5273C138.21 47.3893 138.098 47.2773 137.96 47.2773H136.68C136.542 47.2773 136.43 47.3893 136.43 47.5273V65.8873C136.43 67.9115 136.075 69.6743 135.374 71.1818C134.676 72.6812 133.605 73.8424 132.156 74.6703C130.712 75.4954 128.826 75.9173 126.48 75.9173C124.162 75.9173 122.275 75.4958 120.803 74.6697C119.355 73.8419 118.285 72.6809 117.587 71.1818C116.885 69.6743 116.53 67.9115 116.53 65.8873V47.5273C116.53 47.3893 116.418 47.2773 116.28 47.2773H115C114.862 47.2773 114.75 47.3893 114.75 47.5273V65.7273C114.75 67.9712 115.156 69.9939 115.973 71.7908C116.794 73.5975 118.069 75.0224 119.791 76.0614ZM147.617 76.7273C147.617 76.8654 147.729 76.9773 147.867 76.9773H149.147C149.285 76.9773 149.397 76.8654 149.397 76.7273V47.5273C149.397 47.3893 149.285 47.2773 149.147 47.2773H147.867C147.729 47.2773 147.617 47.3893 147.617 47.5273V76.7273Z" fill="black" stroke="black" stroke-width="0.5" stroke-linejoin="round"/>
<rect x="84.1047" y="14" width="96.8952" height="96.8952" rx="48.4476" stroke="black" stroke-width="2"/>
<rect x="125" y="1.5" width="80" height="23" rx="11.5" fill="#FF884B"/>
<path d="M145.743 17.5V8.74H147.303L149.895 14.584H150.087L152.667 8.74H154.239V17.5H153.063V10.024L153.147 10.048L150.663 15.688H149.223L146.727 10.048L146.823 10.024V17.5H145.743ZM156.926 17.5V11.092H158.078V17.5H156.926ZM155.942 12.004V11.092H158.078V12.004H155.942ZM157.25 10.06C156.994 10.06 156.802 9.992 156.674 9.856C156.554 9.72 156.494 9.548 156.494 9.34C156.494 9.132 156.554 8.96 156.674 8.824C156.802 8.688 156.994 8.62 157.25 8.62C157.506 8.62 157.694 8.688 157.814 8.824C157.942 8.96 158.006 9.132 158.006 9.34C158.006 9.548 157.942 9.72 157.814 9.856C157.694 9.992 157.506 10.06 157.25 10.06ZM162.981 17.716C162.525 17.716 162.105 17.632 161.721 17.464C161.337 17.296 161.001 17.06 160.713 16.756C160.433 16.452 160.213 16.1 160.053 15.7C159.901 15.3 159.825 14.868 159.825 14.404V14.188C159.825 13.732 159.901 13.304 160.053 12.904C160.205 12.504 160.417 12.152 160.689 11.848C160.969 11.544 161.297 11.308 161.673 11.14C162.057 10.964 162.481 10.876 162.945 10.876C163.433 10.876 163.877 10.98 164.277 11.188C164.677 11.388 165.005 11.704 165.261 12.136C165.517 12.568 165.661 13.128 165.693 13.816L165.213 13.048V8.74H166.365V17.5H165.453V14.656H165.789C165.757 15.384 165.605 15.976 165.333 16.432C165.061 16.88 164.717 17.208 164.301 17.416C163.893 17.616 163.453 17.716 162.981 17.716ZM163.137 16.708C163.529 16.708 163.885 16.62 164.205 16.444C164.525 16.268 164.781 16.016 164.973 15.688C165.165 15.352 165.261 14.96 165.261 14.512V13.96C165.261 13.52 165.161 13.148 164.961 12.844C164.769 12.532 164.509 12.296 164.181 12.136C163.861 11.968 163.509 11.884 163.125 11.884C162.701 11.884 162.325 11.984 161.997 12.184C161.677 12.384 161.425 12.664 161.241 13.024C161.065 13.384 160.977 13.808 160.977 14.296C160.977 14.784 161.069 15.212 161.253 15.58C161.437 15.94 161.693 16.22 162.021 16.42C162.349 16.612 162.721 16.708 163.137 16.708ZM171.255 17.716C170.799 17.716 170.379 17.632 169.995 17.464C169.611 17.296 169.275 17.06 168.987 16.756C168.707 16.452 168.487 16.1 168.327 15.7C168.175 15.3 168.099 14.868 168.099 14.404V14.188C168.099 13.732 168.175 13.304 168.327 12.904C168.479 12.504 168.691 12.152 168.963 11.848C169.243 11.544 169.571 11.308 169.947 11.14C170.331 10.964 170.755 10.876 171.219 10.876C171.707 10.876 172.151 10.98 172.551 11.188C172.951 11.388 173.279 11.704 173.535 12.136C173.791 12.568 173.935 13.128 173.967 13.816L173.487 13.048V8.74H174.639V17.5H173.727V14.656H174.063C174.031 15.384 173.879 15.976 173.607 16.432C173.335 16.88 172.991 17.208 172.575 17.416C172.167 17.616 171.727 17.716 171.255 17.716ZM171.411 16.708C171.803 16.708 172.159 16.62 172.479 16.444C172.799 16.268 173.055 16.016 173.247 15.688C173.439 15.352 173.535 14.96 173.535 14.512V13.96C173.535 13.52 173.435 13.148 173.235 12.844C173.043 12.532 172.783 12.296 172.455 12.136C172.135 11.968 171.783 11.884 171.399 11.884C170.975 11.884 170.599 11.984 170.271 12.184C169.951 12.384 169.699 12.664 169.515 13.024C169.339 13.384 169.251 13.808 169.251 14.296C169.251 14.784 169.343 15.212 169.527 15.58C169.711 15.94 169.967 16.22 170.295 16.42C170.623 16.612 170.995 16.708 171.411 16.708ZM176.924 17.5V8.74H178.076V17.5H176.924ZM176.036 9.652V8.74H178.076V9.652H176.036ZM183.01 17.716C182.45 17.716 181.966 17.62 181.558 17.428C181.15 17.236 180.818 16.984 180.562 16.672C180.306 16.352 180.114 15.996 179.986 15.604C179.866 15.212 179.806 14.812 179.806 14.404V14.188C179.806 13.772 179.866 13.368 179.986 12.976C180.114 12.584 180.306 12.232 180.562 11.92C180.818 11.6 181.142 11.348 181.534 11.164C181.934 10.972 182.402 10.876 182.938 10.876C183.634 10.876 184.206 11.028 184.654 11.332C185.11 11.628 185.446 12.012 185.662 12.484C185.886 12.956 185.998 13.46 185.998 13.996V14.512H180.31V13.648H185.158L184.894 14.116C184.894 13.66 184.822 13.268 184.678 12.94C184.534 12.604 184.318 12.344 184.03 12.16C183.742 11.976 183.378 11.884 182.938 11.884C182.482 11.884 182.102 11.988 181.798 12.196C181.502 12.404 181.278 12.688 181.126 13.048C180.982 13.408 180.91 13.824 180.91 14.296C180.91 14.752 180.982 15.164 181.126 15.532C181.278 15.892 181.51 16.18 181.822 16.396C182.134 16.604 182.53 16.708 183.01 16.708C183.514 16.708 183.922 16.596 184.234 16.372C184.554 16.148 184.746 15.888 184.81 15.592H185.89C185.802 16.032 185.626 16.412 185.362 16.732C185.098 17.052 184.766 17.296 184.366 17.464C183.966 17.632 183.514 17.716 183.01 17.716Z" fill="black"/>
<rect x="125" y="1.5" width="80" height="23" rx="11.5" stroke="black" stroke-width="2"/>
</svg>
