<svg width="130" height="46" viewBox="0 0 130 46" fill="none" xmlns="http://www.w3.org/2000/svg">
<path d="M52.0221 37.8379C48.7588 37.8379 46.214 37.1493 44.3878 35.7721C42.5915 34.3949 41.6484 32.4938 41.5586 30.0688H46.4086C46.4685 30.967 46.9326 31.7903 47.8008 32.5387C48.669 33.2872 50.0911 33.6614 52.067 33.6614C53.7436 33.6614 55.0609 33.3321 56.0189 32.6735C56.9769 32.0148 57.456 31.1915 57.456 30.2035C57.456 29.3054 57.0967 28.6018 56.3782 28.0929C55.6896 27.554 54.507 27.1947 52.8305 27.0151L50.4503 26.7905C47.9654 26.5211 45.9895 25.7876 44.5225 24.5901C43.0855 23.3925 42.3669 21.7758 42.3669 19.74C42.3669 18.1233 42.7711 16.7611 43.5794 15.6534C44.3878 14.5457 45.4955 13.6924 46.9026 13.0937C48.3397 12.4949 49.9863 12.1955 51.8425 12.1955C54.7166 12.1955 57.0368 12.8392 58.8032 14.1265C60.5696 15.384 61.4827 17.2401 61.5426 19.6951H56.7374C56.6776 18.767 56.2435 17.9886 55.4351 17.3599C54.6268 16.7312 53.4292 16.4168 51.8425 16.4168C50.3456 16.4168 49.1929 16.7162 48.3846 17.315C47.6062 17.9138 47.217 18.6772 47.217 19.6053C47.217 20.4436 47.5164 21.1022 48.1151 21.5812C48.7139 22.0603 49.6869 22.3746 51.0341 22.5243L53.4143 22.7488C56.1387 23.0482 58.2942 23.8117 59.881 25.0391C61.4977 26.2367 62.306 27.9132 62.306 30.0688C62.306 31.6256 61.8719 32.9878 61.0037 34.1554C60.1355 35.323 58.923 36.2362 57.3661 36.8948C55.8393 37.5235 54.0579 37.8379 52.0221 37.8379Z" fill="black"/>
<path d="M82.6478 37.1193V29.8892H81.7946V21.716C81.7946 20.219 81.4054 19.0814 80.627 18.303C79.8486 17.5246 78.696 17.1354 77.1691 17.1354C76.3308 17.1354 75.4027 17.1503 74.3848 17.1803C73.3669 17.2102 72.364 17.2551 71.376 17.315C70.418 17.3449 69.5647 17.3898 68.8162 17.4497V12.914C69.4749 12.8542 70.1934 12.8092 70.9718 12.7793C71.7802 12.7194 72.6035 12.6745 73.4417 12.6446C74.31 12.6146 75.1333 12.5997 75.9117 12.5997C78.3666 12.5997 80.4025 12.914 82.0191 13.5427C83.6358 14.1714 84.8334 15.1744 85.6118 16.5516C86.4201 17.8988 86.8243 19.7101 86.8243 21.9854V37.1193H82.6478ZM74.789 37.7481C73.0226 37.7481 71.4808 37.4487 70.1635 36.8499C68.8462 36.2212 67.8283 35.323 67.1097 34.1554C66.3912 32.9579 66.032 31.5358 66.032 29.8892C66.032 28.1528 66.4361 26.7157 67.2445 25.578C68.0827 24.4404 69.2653 23.5871 70.7922 23.0183C72.319 22.4495 74.1453 22.165 76.2709 22.165H82.3335V25.6229H76.1362C74.5495 25.6229 73.337 26.0121 72.4987 26.7905C71.6604 27.539 71.2413 28.527 71.2413 29.7545C71.2413 30.9819 71.6604 31.9699 72.4987 32.7184C73.337 33.4369 74.5495 33.7962 76.1362 33.7962C77.0643 33.7962 77.9475 33.6315 78.7858 33.3022C79.6241 32.9429 80.3126 32.3591 80.8515 31.5508C81.4204 30.7424 81.7347 29.6048 81.7946 28.1378L83.1418 29.8892C82.9921 31.5957 82.573 33.0327 81.8844 34.2003C81.2258 35.338 80.2977 36.2212 79.1001 36.8499C77.9325 37.4487 76.4955 37.7481 74.789 37.7481Z" fill="black"/>
<path d="M95.3143 37.1193V12.914H100.569V37.1193H95.3143ZM91.7666 16.9557V12.914H100.569V16.9557H91.7666ZM97.0208 9.54594C95.943 9.54594 95.1347 9.26153 94.5958 8.69269C94.0868 8.12386 93.8324 7.39037 93.8324 6.49221C93.8324 5.62399 94.0868 4.90547 94.5958 4.33663C95.1347 3.73786 95.943 3.43848 97.0208 3.43848C98.1285 3.43848 98.9369 3.73786 99.4458 4.33663C99.9847 4.90547 100.254 5.62399 100.254 6.49221C100.254 7.39037 99.9847 8.12386 99.4458 8.69269C98.9369 9.26153 98.1285 9.54594 97.0208 9.54594Z" fill="black"/>
<path d="M108.4 37.1193V12.914H112.576V23.2877H112.082C112.082 20.8927 112.396 18.8718 113.025 17.2252C113.684 15.5786 114.672 14.3361 115.989 13.4978C117.306 12.6296 118.938 12.1955 120.884 12.1955H121.109C124.102 12.1955 126.333 13.1386 127.8 15.0247C129.267 16.9108 130 19.6652 130 23.2877V37.1193H124.746V22.5692C124.746 20.8927 124.267 19.5454 123.309 18.5275C122.351 17.4797 121.034 16.9557 119.357 16.9557C117.651 16.9557 116.274 17.4946 115.226 18.5724C114.178 19.6203 113.654 21.0274 113.654 22.7938V37.1193H108.4Z" fill="black"/>
<path d="M7 7H27V38H7V7Z" fill="black"/>
<path d="M26.1962 45.2764H0V7.479H7.48464V37.4175H26.1962V45.2764Z" fill="black"/>
<path d="M7.50033 3.16777e-05H34.0708L34.0708 37.4229H26.2043L26.2043 7.4843L7.49265 7.4843L7.50033 3.16777e-05Z" fill="black"/>
<path fill-rule="evenodd" clip-rule="evenodd" d="M26.1997 22.4531H26.2002V22.6356C26.2002 27.2933 25.0385 30.9944 22.6888 33.5683C20.3378 36.1437 17.0555 37.4224 12.8676 37.4224H7.48859L7.48859 22.458H7.48811V7.48869L12.8671 7.48869C17.055 7.48869 20.3373 8.76733 22.6884 11.3427C25.0381 13.9166 26.1997 17.6178 26.1997 22.2754V22.4531Z" fill="white"/>
</svg>
